<?xml version="1.0" standalone="no"?>
<!DOCTYPE svg PUBLIC "-//W3C//DTD SVG 20010904//EN"
 "http://www.w3.org/TR/2001/REC-SVG-20010904/DTD/svg10.dtd">
<svg version="1.0" xmlns="http://www.w3.org/2000/svg"
 width="796.000000pt" height="796.000000pt" viewBox="0 0 796.000000 796.000000"
 preserveAspectRatio="xMidYMid meet">
<metadata>
Created by potrace 1.11, written by Peter Selinger 2001-2013
</metadata>
<g transform="translate(0.000000,796.000000) scale(0.100000,-0.100000)"
fill="#000000" stroke="none">
<path d="M5996 7934 c-169 -41 -330 -193 -377 -358 -118 -409 268 -785 667
-651 384 129 487 609 191 886 -44 41 -89 69 -182 110 -66 30 -205 36 -299 13z"/>
<path d="M3597 7434 c-1 -1 -30 -5 -63 -8 -34 -3 -77 -8 -95 -10 -19 -3 -50
-7 -70 -10 -20 -3 -42 -8 -50 -10 -8 -3 -30 -7 -49 -10 -19 -3 -69 -15 -110
-26 -41 -11 -86 -23 -99 -26 -37 -8 -214 -75 -228 -86 -7 -6 -13 -8 -13 -4 0
5 -220 -105 -278 -139 -29 -17 -197 -128 -202 -134 -3 -4 -30 -25 -60 -48
-158 -121 -329 -299 -449 -468 -39 -55 -74 -105 -78 -111 -8 -10 -20 -30 -45
-76 -7 -13 -15 -25 -18 -28 -3 -3 -20 -34 -38 -70 -35 -68 -38 -74 -66 -127
-9 -18 -17 -35 -17 -38 0 -5 -25 -69 -39 -100 -24 -51 -90 -274 -104 -351 -27
-143 -35 -198 -43 -289 -8 -92 -7 -376 2 -450 6 -52 25 -188 30 -217 18 -89
84 -326 105 -373 5 -11 19 -45 31 -75 58 -152 179 -364 297 -523 95 -126 113
-147 223 -256 89 -89 138 -133 228 -204 20 -15 43 -33 51 -40 8 -7 44 -31 80
-54 36 -23 70 -46 76 -50 35 -27 221 -122 328 -167 108 -46 300 -109 386 -126
25 -5 56 -12 70 -15 35 -8 87 -17 200 -32 62 -9 511 -9 550 0 23 5 44 8 149
23 19 2 37 6 41 9 4 2 22 7 41 10 99 17 339 92 351 110 4 5 8 7 8 3 0 -10 274
114 290 132 3 3 21 13 40 24 33 17 163 101 185 119 6 4 33 25 60 45 142 105
297 257 417 409 38 48 75 95 82 104 26 33 136 216 136 227 0 7 4 12 8 12 7 0
41 67 106 211 30 67 112 311 119 354 3 17 9 48 15 70 11 40 15 63 27 145 11
70 13 89 21 180 11 134 5 399 -12 485 -3 17 -7 44 -9 60 -5 48 -44 225 -62
285 -9 30 -17 60 -18 65 -18 85 -154 394 -206 466 -11 16 -18 29 -15 29 10 0
-141 218 -206 298 -71 87 -250 269 -318 322 -24 19 -51 42 -60 50 -36 33 -226
160 -240 160 -5 0 -10 3 -10 8 0 8 4 6 -162 88 -127 63 -298 131 -403 160 -95
26 -275 63 -335 69 -30 4 -71 8 -90 11 -34 5 -389 12 -393 8z m318 -1069 c65
-9 85 -12 115 -18 525 -111 926 -525 1030 -1062 23 -115 20 -372 -4 -480 -2
-11 -9 -42 -16 -70 -36 -163 -132 -357 -248 -505 -112 -141 -312 -299 -475
-374 -192 -88 -347 -121 -567 -120 -154 0 -227 10 -347 45 -37 11 -72 22 -78
23 -84 24 -301 141 -374 202 -13 11 -32 27 -44 37 -197 165 -366 428 -423 657
-2 8 -8 33 -14 55 -5 22 -12 60 -15 85 -3 25 -8 61 -11 80 -8 46 -7 212 0 275
45 377 231 697 537 925 86 64 223 137 325 174 90 33 242 69 260 62 8 -3 14 -2
14 2 0 4 33 9 72 11 40 1 74 4 75 5 4 4 135 -3 188 -9z"/>
<path d="M1379 2683 c-8 -22 -33 -117 -38 -148 -1 -3 -1 -6 -2 -7 -5 -13 -10
-107 -14 -223 -11 -396 135 -765 415 -1045 58 -58 118 -116 133 -128 39 -32
174 -122 182 -122 4 0 19 -8 33 -18 27 -18 182 -87 242 -107 3 -1 19 -5 35 -9
17 -4 36 -9 43 -12 14 -4 16 -5 62 -16 19 -4 51 -11 70 -13 19 -3 46 -8 60
-12 14 -3 608 -7 1320 -9 712 -1 1331 -5 1375 -7 103 -7 230 -40 303 -79 18
-10 39 -18 46 -18 8 0 16 -4 18 -8 2 -5 23 -20 47 -34 60 -36 170 -134 212
-188 19 -25 36 -47 39 -50 19 -17 80 -130 112 -210 20 -48 46 -154 47 -194 1
-11 3 -17 6 -14 7 6 35 114 40 153 3 17 8 50 12 75 10 58 10 338 1 410 -35
254 -163 539 -331 737 -86 101 -295 283 -326 283 -6 0 -11 4 -11 9 0 7 -224
126 -239 126 -3 0 -10 3 -16 7 -8 5 -62 22 -107 34 -5 1 -10 3 -13 4 -3 1 -8
3 -12 4 -5 1 -17 5 -28 9 -26 8 -60 15 -165 32 -69 11 -337 14 -1395 14 -721
1 -1320 3 -1330 5 -11 2 -42 7 -70 10 -125 17 -300 98 -416 191 -97 79 -180
183 -238 300 -48 97 -99 265 -86 285 3 5 4 10 0 10 -3 0 -10 -12 -16 -27z"/>
</g>
</svg>
