<?xml version="1.0" encoding="utf-8"?>
<!-- Generator: Adobe Illustrator 16.0.0, SVG Export Plug-In . SVG Version: 6.00 Build 0)  -->
<!DOCTYPE svg PUBLIC "-//W3C//DTD SVG 1.1//EN" "http://www.w3.org/Graphics/SVG/1.1/DTD/svg11.dtd">
<svg version="1.1" id="Layer_1" xmlns="http://www.w3.org/2000/svg" xmlns:xlink="http://www.w3.org/1999/xlink" x="0px" y="0px"
	 width="80px" height="80px" viewBox="0 0 80 80" enable-background="new 0 0 80 80" xml:space="preserve">
<path fill="#fff" d="M61.186,41.82v15.672h-9.083V42.874c0-3.673-1.309-6.182-4.601-6.182c-2.508,0-4.001,1.692-4.658,3.327
	c-0.241,0.582-0.3,1.392-0.3,2.211v15.263h-9.087c0,0,0.12-24.764,0-27.326h9.087v3.873c-0.017,0.03-0.045,0.06-0.062,0.09h0.062
	v-0.09c1.206-1.858,3.36-4.516,8.185-4.516C56.708,29.523,61.186,33.43,61.186,41.82L61.186,41.82z M23.954,16.996
	c-3.108,0-5.14,2.042-5.14,4.72c0,2.624,1.97,4.721,5.021,4.721h0.057c3.167,0,5.141-2.097,5.141-4.721
	C28.973,19.036,27.06,16.996,23.954,16.996L23.954,16.996z M19.352,57.491h9.082V30.166h-9.082V57.491L19.352,57.491z"/>
</svg>
