<?xml version="1.0" encoding="utf-8"?>
<!-- Generator: Adobe Illustrator 16.0.0, SVG Export Plug-In . SVG Version: 6.00 Build 0)  -->
<!DOCTYPE svg PUBLIC "-//W3C//DTD SVG 1.1//EN" "http://www.w3.org/Graphics/SVG/1.1/DTD/svg11.dtd">
<svg version="1.1" id="Layer_1" xmlns="http://www.w3.org/2000/svg" xmlns:xlink="http://www.w3.org/1999/xlink" x="0px" y="0px"
	 width="220.739px" height="135.754px" viewBox="289.632 332.124 220.739 135.754"
	 enable-background="new 289.632 332.124 220.739 135.754" xml:space="preserve">
<g>
	<g>
		<path fill="#fff" d="M356.486,442.031c0.84-0.115,1.94-0.215,3.341-0.215c1.722,0,2.98,0.332,3.781,0.93
			c0.739,0.531,1.18,1.344,1.18,2.34c0,1.014-0.359,1.812-1.04,2.391c-0.92,0.814-2.421,1.229-4.12,1.229c-0.521,0-1-0.016-1.4-0.1
			v4.481h-1.74L356.486,442.031L356.486,442.031z M358.227,447.428c0.38,0.082,0.86,0.115,1.439,0.115
			c2.102,0,3.382-0.846,3.382-2.391c0-1.478-1.262-2.191-3.182-2.191c-0.76,0-1.341,0.051-1.641,0.117L358.227,447.428
			L358.227,447.428z"/>
		<path fill="#fff" d="M368.866,441.898v11.188h-1.739v-11.188H368.866z"/>
		<path fill="#fff" d="M378.888,447.842h-5.241v4.035h5.842v1.211h-7.582v-11.188h7.281v1.213h-5.541v3.535h5.241V447.842
			L378.888,447.842z"/>
		<path fill="#fff" d="M384.627,443.127h-4.103v-1.229h9.982v1.229h-4.121v9.961h-1.76L384.627,443.127L384.627,443.127z"/>
		<path fill="#fff" d="M392.006,442.049c0.88-0.149,2.141-0.231,3.341-0.231c1.859,0,3.061,0.28,3.899,0.911
			c0.682,0.498,1.062,1.263,1.062,2.125c0,1.479-1.12,2.457-2.54,2.855v0.051c1.04,0.299,1.66,1.097,1.979,2.258
			c0.44,1.562,0.761,2.64,1.04,3.07h-1.801c-0.22-0.313-0.52-1.277-0.899-2.672c-0.399-1.545-1.119-2.125-2.7-2.176h-1.641v4.848
			h-1.74V442.049z M393.746,447.145h1.779c1.861,0,3.041-0.846,3.041-2.125c0-1.442-1.26-2.073-3.101-2.092
			c-0.841,0-1.44,0.066-1.721,0.133L393.746,447.145L393.746,447.145z"/>
		<path fill="#fff" d="M414.349,447.377c0,3.852-2.82,5.896-6.262,5.896c-3.562,0-6.062-2.291-6.062-5.679
			c0-3.553,2.66-5.877,6.261-5.877C411.968,441.717,414.349,444.057,414.349,447.377z M403.886,447.561
			c0,2.392,1.561,4.531,4.301,4.531c2.762,0,4.321-2.106,4.321-4.647c0-2.226-1.399-4.55-4.302-4.55
			C405.326,442.895,403.886,445.104,403.886,447.561z"/>
		<path fill="#fff" d="M416.605,442.049c0.76-0.133,1.96-0.231,3.181-0.231c1.74,0,2.86,0.248,3.701,0.813
			c0.699,0.433,1.119,1.096,1.119,1.978c0,1.077-0.859,2.024-2.279,2.457v0.032c1.279,0.267,2.779,1.146,2.779,2.806
			c0,0.963-0.459,1.692-1.14,2.241c-0.94,0.714-2.46,1.046-4.661,1.046c-1.2,0-2.12-0.066-2.7-0.134V442.049z M418.346,446.631h1.58
			c1.841,0,2.921-0.797,2.921-1.877c0-1.311-1.2-1.826-2.961-1.826c-0.8,0-1.261,0.051-1.54,0.101V446.631L418.346,446.631z
			 M418.346,451.992c0.34,0.051,0.841,0.065,1.46,0.065c1.801,0,3.461-0.547,3.461-2.174c0-1.526-1.58-2.158-3.48-2.158h-1.439
			L418.346,451.992L418.346,451.992z"/>
		<path fill="#fff" d="M434.427,447.842h-5.241v4.035h5.841v1.211h-7.581v-11.188h7.281v1.213h-5.541v3.535h5.241V447.842z"/>
		<path fill="#fff" d="M437.284,441.898h1.74v9.979h5.761v1.211h-7.501V441.898L437.284,441.898z"/>
		<path fill="#fff" d="M446.726,441.898h1.74v9.979h5.762v1.211h-7.502V441.898L446.726,441.898z"/>
		<path fill="#fff" d="M457.905,441.898v11.188h-1.74v-11.188H457.905z"/>
	</g>
	<path fill="#fff" d="M363.893,410.35c-0.085-0.412-0.125-0.809-0.121-1.192c0.006-0.386-0.012-0.761-0.054-1.123l0.027-2.106
		c0.063-1.361,0.218-2.72,0.462-4.074c0.1-0.633,0.21-1.278,0.33-1.936c0.122-0.655,0.231-1.299,0.331-1.934
		c0.146-0.633,0.288-1.276,0.434-1.934c0.145-0.654,0.311-1.299,0.501-1.932c0.145-0.632,0.299-1.253,0.467-1.862
		c0.166-0.61,0.344-1.231,0.533-1.863c0.188-0.633,0.379-1.242,0.567-1.83c0.188-0.587,0.378-1.196,0.567-1.829l1.271-3.655
		l0.636-1.827l0.352-0.881c0.093-0.179,0.151-0.338,0.176-0.473c0.025-0.136,0.083-0.293,0.177-0.475
		c0.516-1.218,1.376-2.078,2.585-2.585c1.207-0.505,2.42-0.5,3.638,0.014c1.218,0.516,2.091,1.366,2.619,2.55
		c0.529,1.188,0.535,2.388,0.021,3.604c-0.046,0.046-0.068,0.114-0.07,0.204l-0.067-0.001l-0.351,0.812l-0.352,0.811
		c-0.14,0.272-0.269,0.541-0.384,0.812c-0.118,0.27-0.224,0.541-0.317,0.812c-0.234,0.587-0.479,1.15-0.734,1.691
		c-0.258,0.54-0.503,1.104-0.737,1.689c-0.233,0.543-0.455,1.095-0.667,1.659c-0.211,0.563-0.435,1.139-0.668,1.725
		c-0.234,0.542-0.445,1.096-0.634,1.659c-0.189,0.563-0.4,1.14-0.634,1.725c-0.235,0.541-0.436,1.095-0.602,1.658
		c-0.166,0.565-0.366,1.141-0.601,1.726c-0.188,0.543-0.354,1.096-0.496,1.66c-0.146,0.565-0.288,1.143-0.432,1.729
		c-0.188,0.541-0.345,1.096-0.464,1.66c-0.121,0.566-0.229,1.121-0.327,1.664c-0.05,0.27-0.087,0.543-0.112,0.813
		c-0.027,0.271-0.064,0.521-0.111,0.748c-0.004,0.271-0.019,0.533-0.044,0.781c-0.027,0.25-0.041,0.486-0.043,0.713
		c0.041,0.227,0.063,0.443,0.059,0.646c-0.002,0.205,0.019,0.398,0.063,0.58c-0.002,0.09,0.008,0.16,0.031,0.203
		c0.021,0.047,0.031,0.092,0.03,0.137c0.044,0.094,0.066,0.184,0.065,0.273l-0.001,0.067l-0.001,0.067
		c0.044,0,0.078,0.013,0.102,0.035c0.021,0.023,0.078,0.033,0.169,0.035l0.137,0.002c0.045,0,0.067,0.012,0.067,0.035
		s0.021,0.035,0.067,0.033l0.066,0.002c0.139,0.002,0.249-0.02,0.342-0.063c0.09,0,0.272-0.041,0.547-0.129
		c0.316-0.131,0.729-0.354,1.231-0.664c0.502-0.312,0.938-0.623,1.305-0.937c0.229-0.178,0.457-0.354,0.687-0.535
		c0.229-0.178,0.458-0.379,0.688-0.604c0.825-0.76,1.675-1.588,2.548-2.481c0.414-0.446,0.828-0.885,1.241-1.312
		c0.414-0.428,0.827-0.885,1.241-1.379c0.369-0.493,0.865-1.121,1.486-1.885c0.622-0.763,1.117-1.391,1.487-1.886
		c0.229-0.223,0.425-0.458,0.587-0.706c0.161-0.245,0.355-0.481,0.587-0.705l0.555-0.742c0.092-0.134,0.185-0.27,0.276-0.404
		c0.092-0.134,0.184-0.246,0.276-0.336c0.184-0.223,0.423-0.369,0.72-0.434c0.295-0.063,0.578-0.003,0.848,0.181
		c0.448,0.37,0.557,0.825,0.322,1.364c-0.093,0.136-0.174,0.282-0.244,0.44c-0.069,0.159-0.151,0.303-0.243,0.438l-0.418,0.812
		c-0.281,0.675-0.584,1.241-0.906,1.688c-0.324,0.584-0.742,1.305-1.252,2.157c-0.511,0.856-0.929,1.556-1.251,2.095
		c-0.371,0.539-0.729,1.078-1.075,1.619c-0.348,0.536-0.705,1.077-1.074,1.616c-0.37,0.539-0.751,1.065-1.144,1.582
		c-0.393,0.519-0.796,1.021-1.21,1.517c-0.23,0.27-0.449,0.539-0.656,0.807c-0.207,0.27-0.428,0.516-0.654,0.74
		c-0.23,0.223-0.482,0.471-0.758,0.738c-0.276,0.27-0.552,0.512-0.825,0.735c-0.645,0.537-1.262,0.981-1.854,1.338
		c-0.184,0.088-0.367,0.188-0.549,0.297c-0.184,0.113-0.389,0.212-0.616,0.302c-0.365,0.176-0.865,0.328-1.502,0.455l-0.136-0.002
		h-0.067l-0.205,0.063l-0.341-0.005c-0.182,0.044-0.432,0.063-0.748,0.058c-0.59-0.006-1.133-0.104-1.629-0.291
		c-0.271-0.096-0.554-0.188-0.847-0.284c-0.294-0.095-0.574-0.232-0.844-0.419c-0.54-0.368-0.988-0.76-1.346-1.174
		c-0.447-0.504-0.76-0.961-0.935-1.373c-0.268-0.455-0.465-0.912-0.595-1.364c-0.176-0.457-0.294-0.89-0.357-1.298
		C364.053,411.098,363.979,410.713,363.893,410.35z"/>
	<path fill="#fff" d="M428.769,394.652c0.225,0.139,0.358,0.344,0.399,0.617c0.041,0.271,0.017,0.521-0.077,0.746
		c-0.188,0.361-0.349,0.631-0.485,0.81l-0.42,0.879c-0.14,0.271-0.35,0.652-0.628,1.148c-0.278,0.495-0.511,0.899-0.696,1.214
		c-0.323,0.542-0.637,1.081-0.938,1.622c-0.303,0.539-0.615,1.103-0.941,1.687c-0.37,0.54-0.727,1.08-1.073,1.619
		c-0.347,0.54-0.706,1.058-1.075,1.552c-0.369,0.539-0.752,1.078-1.143,1.615c-0.393,0.539-0.797,1.057-1.21,1.551
		c-0.231,0.268-0.449,0.527-0.657,0.771c-0.206,0.248-0.426,0.506-0.654,0.774c-0.23,0.224-0.481,0.457-0.759,0.703
		c-0.273,0.246-0.549,0.479-0.824,0.703c-0.55,0.491-1.169,0.959-1.854,1.405c-0.183,0.086-0.366,0.187-0.548,0.298
		c-0.183,0.11-0.388,0.211-0.614,0.299c-0.503,0.219-1.003,0.349-1.502,0.39l-0.138,0.063h-0.067l-0.204-0.002
		c-0.092-0.003-0.146,0.01-0.171,0.03c-0.021,0.021-0.08,0.033-0.17,0.031l-0.748-0.01c-0.544-0.006-1.086-0.08-1.629-0.225
		c-0.542-0.144-1.104-0.4-1.688-0.771c-0.496-0.278-0.944-0.67-1.347-1.174c-0.447-0.412-0.761-0.871-0.935-1.373
		c-0.313-0.502-0.509-0.957-0.594-1.367c-0.177-0.409-0.297-0.819-0.358-1.229c-0.063-0.409-0.138-0.815-0.223-1.227l-0.175-2.246
		l0.001-0.137c-0.232,0.449-0.477,0.902-0.73,1.35c-0.256,0.451-0.521,0.902-0.8,1.353c-0.231,0.358-0.485,0.729-0.764,1.11
		c-0.275,0.384-0.553,0.754-0.829,1.113c-0.321,0.357-0.646,0.693-0.966,1.006c-0.321,0.313-0.666,0.627-1.031,0.939
		c-0.735,0.67-1.604,1.203-2.604,1.598c-0.959,0.441-2.028,0.721-3.208,0.844c-0.182-0.004-0.317,0.019-0.409,0.062h-0.066h-0.067
		l-0.068-0.002l-0.203-0.002l-0.816-0.013c-0.68-0.008-1.314-0.106-1.9-0.297c-0.679-0.145-1.31-0.424-1.893-0.84
		c-0.631-0.416-1.169-0.897-1.614-1.449c-0.491-0.596-0.868-1.188-1.133-1.782c-0.132-0.273-0.253-0.56-0.363-0.854
		c-0.107-0.295-0.206-0.582-0.294-0.854c-0.173-0.591-0.292-1.146-0.353-1.671c-0.063-0.521-0.111-1.032-0.15-1.53
		c0.006-0.498,0.013-0.998,0.021-1.497c0.006-0.497,0.034-0.997,0.088-1.495c0.051-0.452,0.091-0.903,0.119-1.358
		c0.027-0.451,0.091-0.903,0.188-1.356c0.049-0.227,0.085-0.44,0.11-0.644c0.025-0.205,0.084-0.419,0.178-0.645
		c0.099-0.544,0.195-0.995,0.29-1.357c0.097-0.405,0.192-0.824,0.288-1.253c0.097-0.43,0.191-0.849,0.288-1.256
		c0.142-0.405,0.271-0.823,0.391-1.253c0.118-0.428,0.249-0.847,0.39-1.252c0.098-0.408,0.217-0.813,0.356-1.22
		c0.142-0.407,0.282-0.812,0.424-1.22c0.142-0.359,0.292-0.744,0.457-1.148c0.163-0.406,0.316-0.813,0.457-1.22
		c0.144-0.406,0.293-0.799,0.458-1.184c0.164-0.383,0.315-0.777,0.458-1.184c0.372-0.766,0.722-1.532,1.05-2.299
		c0.326-0.767,0.677-1.533,1.051-2.299c0.141-0.36,0.324-0.721,0.558-1.081c0.141-0.359,0.326-0.744,0.559-1.149
		c0.095-0.225,0.188-0.415,0.28-0.574c0.093-0.157,0.186-0.347,0.279-0.573l0.347-0.54l0.14-0.271l0.142-0.338
		c0.694-1.215,1.715-2.006,3.057-2.375c1.342-0.367,2.621-0.204,3.836,0.492c1.17,0.65,1.951,1.635,2.342,2.954
		c0.392,1.32,0.261,2.589-0.389,3.805l-0.069,0.066l-0.487,0.945l-0.559,1.081l-0.558,1.013l-0.558,1.013
		c-0.373,0.722-0.722,1.419-1.048,2.095c-0.325,0.676-0.676,1.375-1.047,2.096c-0.697,1.396-1.374,2.793-2.025,4.188
		c-0.653,1.397-1.262,2.817-1.823,4.261c-0.141,0.362-0.271,0.71-0.388,1.051c-0.118,0.338-0.247,0.687-0.389,1.048
		c-0.094,0.181-0.151,0.349-0.177,0.508c-0.026,0.159-0.084,0.329-0.177,0.509c-0.094,0.18-0.152,0.348-0.177,0.506
		c-0.025,0.16-0.085,0.329-0.178,0.51c-0.096,0.361-0.179,0.711-0.251,1.051c-0.072,0.338-0.156,0.668-0.251,0.983
		c-0.097,0.361-0.169,0.7-0.217,1.017c-0.051,0.315-0.1,0.635-0.149,0.951c-0.1,0.635-0.104,1.155-0.02,1.563
		c-0.004,0.273,0.016,0.477,0.061,0.613l-0.005,0.34c0.043,0.094,0.065,0.182,0.064,0.272c0.043,0.093,0.134,0.205,0.268,0.345
		c0.088,0.137,0.245,0.229,0.474,0.276c0.09,0.048,0.146,0.07,0.169,0.07c0.021,0,0.079,0.024,0.169,0.069h0.067l0.067,0.002h0.067
		v0.068l0.204,0.002c0.588,0.1,1.132,0.084,1.633-0.045c0.499-0.039,1.066-0.234,1.708-0.592c0.272-0.131,0.559-0.285,0.854-0.463
		s0.584-0.377,0.858-0.602c0.273-0.224,0.55-0.457,0.825-0.703c0.274-0.246,0.526-0.525,0.759-0.84
		c0.505-0.539,0.989-1.121,1.45-1.752c0.461-0.63,0.899-1.257,1.317-1.887c0.416-0.675,0.799-1.359,1.147-2.061
		c0.35-0.695,0.708-1.406,1.082-2.128c0-0.044,0.011-0.066,0.034-0.065c0.022,0,0.034-0.023,0.034-0.069
		c0.098-0.452,0.183-0.881,0.256-1.287c0.072-0.408,0.156-0.838,0.255-1.29c0.243-1.356,0.531-2.622,0.864-3.797
		c0.146-0.633,0.3-1.254,0.468-1.863c0.165-0.61,0.344-1.229,0.533-1.864c0.188-0.632,0.38-1.253,0.568-1.863
		c0.188-0.609,0.377-1.229,0.568-1.862l1.271-3.655c0.094-0.271,0.199-0.553,0.316-0.847c0.117-0.292,0.223-0.596,0.317-0.914
		l0.353-0.947c0.093-0.135,0.15-0.281,0.176-0.439c0.025-0.157,0.084-0.304,0.177-0.44c0.515-1.218,1.375-2.091,2.583-2.619
		c1.208-0.527,2.421-0.535,3.641-0.021c1.218,0.516,2.09,1.377,2.617,2.585c0.528,1.208,0.535,2.42,0.021,3.639
		c-0.047,0.045-0.069,0.089-0.071,0.134h-0.065l-0.353,0.812l-0.35,0.811c-0.14,0.316-0.27,0.608-0.386,0.88
		c-0.116,0.271-0.224,0.542-0.316,0.811c-0.235,0.543-0.48,1.095-0.735,1.657c-0.258,0.565-0.502,1.116-0.734,1.657
		c-0.235,0.586-0.458,1.161-0.669,1.726c-0.212,0.565-0.436,1.116-0.667,1.657c-0.235,0.588-0.447,1.163-0.636,1.727
		c-0.188,0.564-0.399,1.117-0.635,1.656c-0.231,0.589-0.435,1.165-0.6,1.729c-0.166,0.563-0.365,1.114-0.601,1.657
		c-0.188,0.587-0.354,1.163-0.498,1.727c-0.144,0.566-0.285,1.119-0.431,1.661c-0.188,0.588-0.344,1.151-0.463,1.692
		c-0.122,0.543-0.229,1.087-0.327,1.63l-0.225,1.629c-0.004,0.229-0.019,0.467-0.043,0.713c-0.027,0.25-0.042,0.487-0.044,0.715
		c0.041,0.229,0.063,0.441,0.061,0.646c-0.003,0.205,0.016,0.396,0.061,0.58c0.043,0.136,0.063,0.271,0.063,0.408
		c-0.001,0.045,0.021,0.092,0.065,0.137l-0.001,0.068c0.044,0.045,0.044,0.066-0.002,0.066v0.068
		c0.043,0.047,0.137,0.069,0.271,0.069c-0.003,0.048,0.042,0.07,0.133,0.072h0.137l0.067,0.002l0.341,0.004
		c0.092-0.043,0.183-0.063,0.273-0.063c0.09,0,0.181-0.041,0.272-0.133c0.182-0.089,0.376-0.177,0.58-0.265
		c0.205-0.088,0.422-0.199,0.651-0.332c0.229-0.179,0.446-0.334,0.653-0.467c0.204-0.134,0.422-0.312,0.652-0.537
		c0.229-0.177,0.456-0.345,0.687-0.5c0.229-0.154,0.458-0.345,0.688-0.567c0.412-0.404,0.837-0.808,1.273-1.207
		c0.436-0.402,0.861-0.83,1.274-1.277c0.414-0.446,0.826-0.896,1.24-1.344c0.414-0.449,0.829-0.896,1.241-1.345
		c0.37-0.493,0.762-0.965,1.176-1.412c0.413-0.448,0.805-0.919,1.174-1.415c0.229-0.223,0.493-0.582,0.797-1.076
		c0.301-0.495,0.565-0.854,0.797-1.079l0.554-0.741c0.091-0.089,0.184-0.2,0.273-0.335c0.095-0.135,0.186-0.27,0.279-0.405
		C427.615,394.297,428.14,394.235,428.769,394.652z"/>
	<path fill="#fff" d="M448.477,411.443c-0.085-0.41-0.125-0.808-0.12-1.191s-0.013-0.76-0.053-1.123l0.026-2.107
		c0.063-1.358,0.218-2.719,0.459-4.074c0.102-0.633,0.211-1.277,0.332-1.934c0.122-0.656,0.233-1.3,0.331-1.935
		c0.146-0.632,0.289-1.276,0.435-1.933c0.145-0.655,0.31-1.3,0.501-1.933c0.144-0.631,0.299-1.252,0.466-1.863
		c0.166-0.61,0.344-1.23,0.534-1.862c0.188-0.633,0.378-1.242,0.567-1.829c0.188-0.588,0.377-1.196,0.566-1.829l1.273-3.655
		l0.635-1.827l0.351-0.882c0.095-0.18,0.151-0.338,0.177-0.473c0.024-0.136,0.084-0.293,0.178-0.474
		c0.514-1.219,1.375-2.079,2.584-2.585c1.206-0.505,2.421-0.501,3.638,0.013c1.217,0.516,2.091,1.365,2.619,2.55
		c0.528,1.188,0.535,2.389,0.021,3.604c-0.045,0.046-0.068,0.114-0.068,0.204l-0.068-0.001l-0.351,0.811l-0.352,0.813
		c-0.14,0.27-0.269,0.54-0.384,0.81c-0.119,0.271-0.224,0.542-0.318,0.813c-0.233,0.586-0.479,1.15-0.734,1.691
		c-0.257,0.539-0.502,1.104-0.736,1.689c-0.234,0.541-0.455,1.095-0.667,1.658s-0.435,1.139-0.669,1.726
		c-0.234,0.54-0.445,1.094-0.633,1.657c-0.19,0.564-0.399,1.141-0.636,1.727c-0.234,0.539-0.434,1.093-0.6,1.657
		c-0.166,0.566-0.366,1.142-0.601,1.726c-0.188,0.543-0.354,1.096-0.497,1.661c-0.146,0.565-0.287,1.143-0.43,1.729
		c-0.19,0.541-0.346,1.094-0.464,1.66c-0.122,0.564-0.231,1.117-0.328,1.662c-0.05,0.271-0.088,0.541-0.112,0.814
		c-0.028,0.271-0.064,0.52-0.112,0.746c-0.004,0.271-0.019,0.533-0.043,0.78c-0.027,0.25-0.042,0.488-0.044,0.714
		c0.041,0.229,0.063,0.442,0.062,0.647c-0.004,0.203,0.017,0.396,0.06,0.578c0,0.09,0.008,0.159,0.031,0.204
		c0.021,0.046,0.032,0.091,0.031,0.136c0.044,0.094,0.066,0.185,0.064,0.272l-0.001,0.068v0.068c0.045,0,0.077,0.012,0.1,0.035
		c0.023,0.022,0.08,0.035,0.172,0.035h0.137c0.043,0.004,0.066,0.014,0.066,0.037c-0.002,0.022,0.021,0.034,0.065,0.034h0.068
		c0.137,0.002,0.249-0.018,0.342-0.063c0.09,0,0.271-0.041,0.546-0.129c0.319-0.131,0.729-0.354,1.232-0.664
		c0.502-0.309,0.938-0.623,1.304-0.936c0.229-0.178,0.458-0.355,0.688-0.535c0.229-0.178,0.457-0.379,0.688-0.604
		c0.825-0.76,1.675-1.586,2.547-2.482c0.414-0.447,0.828-0.885,1.242-1.311s0.826-0.883,1.242-1.379
		c0.367-0.494,0.862-1.121,1.485-1.885c0.622-0.763,1.116-1.392,1.486-1.886c0.229-0.222,0.425-0.456,0.587-0.705
		c0.162-0.246,0.355-0.482,0.587-0.708l0.554-0.741c0.094-0.134,0.186-0.27,0.277-0.404c0.093-0.134,0.186-0.247,0.277-0.336
		c0.184-0.223,0.424-0.369,0.72-0.433c0.294-0.063,0.578-0.003,0.848,0.181c0.448,0.369,0.556,0.824,0.321,1.365
		c-0.092,0.135-0.173,0.281-0.243,0.438c-0.069,0.158-0.15,0.303-0.243,0.438L472.074,401c-0.281,0.676-0.585,1.24-0.906,1.688
		c-0.325,0.586-0.743,1.307-1.252,2.16c-0.511,0.854-0.928,1.553-1.252,2.092c-0.371,0.539-0.729,1.078-1.075,1.619
		c-0.348,0.537-0.705,1.078-1.074,1.617c-0.37,0.539-0.751,1.068-1.144,1.584c-0.392,0.516-0.794,1.021-1.211,1.514
		c-0.229,0.271-0.447,0.537-0.654,0.81c-0.207,0.271-0.428,0.515-0.655,0.737c-0.23,0.224-0.481,0.472-0.758,0.738
		c-0.274,0.269-0.552,0.515-0.826,0.736c-0.644,0.537-1.26,0.982-1.854,1.336c-0.184,0.09-0.365,0.189-0.548,0.299
		c-0.183,0.111-0.39,0.211-0.617,0.301c-0.364,0.174-0.863,0.328-1.502,0.455l-0.136-0.002l-0.067-0.002l-0.205,0.066l-0.34-0.004
		c-0.183,0.043-0.433,0.063-0.748,0.059c-0.59-0.008-1.133-0.107-1.629-0.293c-0.271-0.096-0.554-0.189-0.847-0.283
		c-0.295-0.094-0.574-0.233-0.845-0.418c-0.539-0.371-0.987-0.762-1.344-1.176c-0.449-0.506-0.762-0.961-0.937-1.371
		c-0.266-0.457-0.465-0.912-0.595-1.367c-0.174-0.455-0.294-0.889-0.356-1.297C448.636,412.193,448.564,411.809,448.477,411.443z"/>
	<path fill="#fff" d="M501.862,421.932c-0.461,0.537-0.921,0.941-1.377,1.207c-0.23,0.224-0.505,0.425-0.824,0.603
		c-0.318,0.176-0.662,0.33-1.024,0.461c-0.41,0.176-0.798,0.285-1.161,0.326c-0.045,0.045-0.093,0.065-0.137,0.065l-0.204-0.004
		h-0.067H497l-0.002,0.068l-0.137-0.004c-0.091,0-0.171,0.01-0.238,0.03c-0.067,0.021-0.147,0.031-0.237,0.031
		c-0.638,0.082-1.316,0.074-2.039-0.026c-0.363-0.05-0.727-0.111-1.087-0.185c-0.361-0.07-0.745-0.203-1.15-0.389
		c-0.723-0.281-1.419-0.722-2.091-1.318c-0.673-0.598-1.188-1.219-1.541-1.856c-0.445-0.642-0.755-1.301-0.926-1.982
		c-0.266-0.594-0.46-1.207-0.589-1.844c-0.086-0.318-0.141-0.627-0.157-0.922c-0.021-0.293-0.05-0.603-0.09-0.918
		c-0.042-0.273-0.073-0.547-0.093-0.818s-0.026-0.543-0.022-0.814c-0.094,0.226-0.188,0.429-0.28,0.605
		c-0.094,0.182-0.187,0.361-0.277,0.541c-0.188,0.361-0.373,0.734-0.559,1.115c-0.188,0.383-0.396,0.756-0.628,1.113
		c-0.373,0.721-0.835,1.442-1.389,2.16c-0.275,0.358-0.554,0.706-0.829,1.043c-0.277,0.336-0.601,0.684-0.966,1.04
		c-0.185,0.179-0.367,0.336-0.552,0.472c-0.181,0.133-0.388,0.289-0.615,0.467c-0.412,0.266-0.893,0.533-1.439,0.797
		c-0.228,0.088-0.479,0.176-0.75,0.262c-0.275,0.088-0.57,0.152-0.888,0.193c-0.046,0-0.081,0.01-0.104,0.033
		c-0.022,0.021-0.08,0.032-0.171,0.032l-0.067-0.002l-0.136-0.002h-0.066l-0.138-0.002l-0.204-0.004
		c-0.183,0.043-0.342,0.051-0.478,0.027c-0.135-0.025-0.294-0.037-0.474-0.039c-0.272-0.049-0.566-0.109-0.885-0.183
		c-0.313-0.071-0.632-0.178-0.947-0.317c-0.631-0.281-1.171-0.65-1.616-1.109c-0.494-0.414-0.873-0.873-1.139-1.377
		c-0.18-0.228-0.334-0.479-0.467-0.754c-0.133-0.271-0.242-0.522-0.329-0.75c-0.222-0.502-0.385-0.979-0.491-1.437
		c-0.107-0.453-0.203-0.932-0.289-1.432c-0.083-0.455-0.136-0.906-0.151-1.361c-0.017-0.453-0.045-0.905-0.084-1.36
		c0.005-0.453,0.011-0.896,0.019-1.324c0.006-0.432,0.033-0.873,0.085-1.328c0.057-0.856,0.146-1.706,0.27-2.545
		c0.126-0.838,0.283-1.687,0.477-2.545c0.146-0.813,0.339-1.629,0.574-2.44c0.238-0.813,0.476-1.625,0.712-2.44
		c0.612-1.714,1.245-3.314,1.899-4.803c0.372-0.765,0.768-1.53,1.187-2.296c0.416-0.765,0.88-1.529,1.39-2.294
		c0.462-0.718,1.016-1.459,1.66-2.224c0.32-0.357,0.644-0.705,0.967-1.04c0.32-0.338,0.665-0.684,1.033-1.042
		c0.643-0.625,1.467-1.248,2.472-1.872c0.869-0.578,1.919-1.04,3.147-1.387c0.591-0.219,1.203-0.359,1.842-0.418
		c0.634-0.061,1.27-0.086,1.903-0.078c1.223,0.108,2.442,0.372,3.662,0.796c0.991,0.375,2.005,0.91,3.038,1.604
		c0.226,0.185,0.44,0.356,0.643,0.518c0.201,0.162,0.392,0.336,0.569,0.518c0.271,0.186,0.473,0.346,0.605,0.483
		c0.137,0.048,0.226,0.139,0.27,0.277l0.269,0.206c0.939,0.92,1.426,2.015,1.454,3.284c0.027,1.269-0.396,2.374-1.269,3.314
		c-0.917,0.896-2.012,1.368-3.281,1.421c-1.271,0.052-2.354-0.382-3.248-1.301c-0.09-0.047-0.146-0.091-0.168-0.139
		c-0.021-0.045-0.077-0.091-0.169-0.137l-0.064-0.138l-0.066-0.069l-0.135-0.139c-0.045-0.091-0.091-0.146-0.135-0.171
		c-0.043-0.022-0.089-0.057-0.136-0.104l-0.534-0.55c-0.226-0.184-0.417-0.332-0.572-0.45c-0.158-0.113-0.327-0.219-0.507-0.312
		c-0.182-0.093-0.338-0.163-0.475-0.211c-0.136-0.046-0.271-0.071-0.405-0.072c-0.317-0.049-0.636-0.053-0.952-0.013
		c-0.408-0.006-0.818,0.126-1.229,0.392c-0.228,0.088-0.456,0.198-0.685,0.332c-0.229,0.133-0.457,0.289-0.687,0.467
		c-0.504,0.355-0.975,0.769-1.409,1.238c-0.438,0.473-0.887,0.954-1.347,1.446c-0.415,0.538-0.817,1.089-1.211,1.651
		c-0.394,0.561-0.773,1.157-1.146,1.786c-0.372,0.631-0.709,1.272-1.012,1.926c-0.304,0.651-0.617,1.295-0.943,1.924
		c-0.605,1.4-1.102,2.775-1.48,4.133c-0.235,0.674-0.438,1.363-0.604,2.064c-0.168,0.7-0.303,1.412-0.401,2.137
		c-0.096,0.363-0.156,0.701-0.185,1.018c-0.026,0.318-0.066,0.658-0.113,1.02c-0.005,0.363-0.011,0.703-0.013,1.021
		c-0.007,0.315,0.013,0.658,0.052,1.021c-0.002,0.316,0.017,0.623,0.058,0.918c0.04,0.297,0.105,0.56,0.193,0.785
		c0.044,0.137,0.087,0.262,0.132,0.375c0.043,0.115,0.087,0.217,0.131,0.31c0.045,0.09,0.089,0.172,0.134,0.237
		c0.044,0.07,0.09,0.148,0.135,0.24c0.088,0.047,0.2,0.139,0.335,0.277l0.405,0.141c0.046,0,0.079,0.012,0.103,0.035
		c0.021,0.025,0.08,0.035,0.171,0.037h0.068h0.067l0.067,0.002h0.067c0.136,0.004,0.34-0.039,0.613-0.127
		c0.453-0.084,0.935-0.328,1.438-0.73c0.229-0.223,0.469-0.436,0.722-0.637c0.251-0.199,0.491-0.436,0.723-0.703
		c0.229-0.27,0.461-0.539,0.69-0.809c0.229-0.268,0.461-0.561,0.69-0.875l1.248-1.82c0.369-0.629,0.741-1.281,1.113-1.957
		c0.371-0.674,0.741-1.373,1.115-2.094c0.65-1.26,1.281-2.658,1.891-4.191c0.094-0.226,0.188-0.461,0.281-0.709
		c0.093-0.248,0.188-0.484,0.281-0.713c0.097-0.449,0.189-0.789,0.286-1.016c0.047-0.229,0.095-0.464,0.145-0.714
		c0.047-0.247,0.12-0.509,0.214-0.778c0.046-0.135,0.118-0.383,0.214-0.745l0.143-0.406c0.045-0.089,0.068-0.158,0.069-0.203
		c0-0.045,0.023-0.112,0.07-0.203l0.003-0.135c0.467-1.22,1.285-2.115,2.448-2.69c1.164-0.572,2.377-0.648,3.642-0.224
		c1.264,0.425,2.183,1.219,2.759,2.382c0.571,1.164,0.647,2.378,0.224,3.641c-0.093,0.181-0.14,0.315-0.142,0.407l-0.14,0.27
		l-0.14,0.271l-0.212,0.61c-0.096,0.227-0.177,0.428-0.247,0.607c-0.069,0.184-0.151,0.385-0.245,0.609
		c-0.142,0.404-0.282,0.813-0.423,1.22c-0.144,0.405-0.283,0.834-0.426,1.287c-0.098,0.403-0.215,0.813-0.355,1.219
		c-0.141,0.406-0.261,0.836-0.357,1.287c-0.048,0.228-0.098,0.43-0.144,0.61c-0.049,0.181-0.097,0.384-0.144,0.607l-0.221,1.223
		c-0.097,0.406-0.169,0.804-0.22,1.188s-0.077,0.758-0.083,1.121c-0.095,0.36-0.1,0.7-0.013,1.021
		c-0.008,0.452,0.013,0.771,0.056,0.952c-0.003,0.183,0.04,0.408,0.127,0.683c0.088,0.182,0.132,0.32,0.131,0.41
		c0.044,0.09,0.133,0.203,0.269,0.344c0.044,0.045,0.201,0.137,0.473,0.277c0.271,0.094,0.542,0.141,0.813,0.146
		c0.092,0,0.158,0.024,0.204,0.069h0.068l0.067,0.002l-0.067-0.002l0.067,0.002l0.202,0.002c0.094-0.043,0.205-0.075,0.343-0.098
		c0.138-0.02,0.271-0.076,0.409-0.162c0.139-0.09,0.274-0.178,0.411-0.27c0.138-0.086,0.296-0.176,0.48-0.264
		c0.319-0.223,0.628-0.469,0.927-0.736c0.299-0.27,0.586-0.582,0.862-0.943c0.643-0.623,1.24-1.272,1.793-1.947
		c0.278-0.358,0.564-0.729,0.865-1.11c0.3-0.381,0.563-0.752,0.796-1.11c0.14-0.179,0.275-0.357,0.415-0.539
		c0.14-0.179,0.277-0.382,0.416-0.605c0.32-0.357,0.577-0.742,0.764-1.148c0.139-0.223,0.276-0.426,0.416-0.604
		c0.138-0.179,0.252-0.382,0.348-0.607c0.321-0.358,0.576-0.739,0.764-1.146c0.139-0.225,0.267-0.426,0.382-0.605
		c0.115-0.179,0.242-0.383,0.381-0.609l0.349-0.606l0.349-0.606l0.001-0.066c0.184-0.225,0.414-0.381,0.687-0.471
		c0.273-0.086,0.545-0.06,0.815,0.08c0.54,0.324,0.715,0.758,0.525,1.299l-0.14,0.34l-0.142,0.404l-0.212,0.678
		c-0.097,0.227-0.178,0.453-0.247,0.678c-0.071,0.227-0.154,0.451-0.248,0.678c-0.094,0.225-0.187,0.449-0.279,0.676
		c-0.095,0.228-0.188,0.449-0.282,0.677c-0.141,0.407-0.327,0.856-0.562,1.354c-0.094,0.228-0.188,0.451-0.28,0.677
		c-0.095,0.227-0.188,0.451-0.281,0.678s-0.198,0.451-0.313,0.676c-0.117,0.225-0.224,0.449-0.315,0.676
		c-0.233,0.451-0.465,0.889-0.697,1.316c-0.231,0.43-0.467,0.867-0.695,1.318c-0.514,0.899-1.067,1.774-1.667,2.629
		C503.424,420.252,502.733,421.082,501.862,421.932z"/>
	<path fill="#fff" d="M352.972,427.221c3.135-7.52,5.643-15.281,7.507-23.285c2.997-13.104,5.687-29.219-8.197-29.324
		c-3.565-0.028-12.406,1.109-19.376,6.498c-5.803,4.486-10.207,9.207-13.314,15.723c-8.571,17.963,1.548,25.83,4.125,26.719
		c10.799,3.719,24.664-7.543,29.864-14.995c-1.399,3.629-3.693,12.004-6.752,19.153c-72.692,8.906-61.143,35.82-45.568,39.236
		c8.94,1.965,14.729,1.352,27.755-7.088c8.028-5.203,14.89-14.216,17.938-19.919c1.718-3.223,1.784-3.137,3.251-6.454
		c54.819-6.572,122.465-2.896,159.275,5.379c-1.159-1.769-15.636-5.295-19.952-6.355
		C439.394,420.168,382.121,423.973,352.972,427.221z M355.926,391.466c-8.672,24.276-24.571,27.294-27.447,23.806
		c-3.039-3.69-3.533-11.442,5.867-23.655c6.289-8.176,16.088-11.882,19.467-11.296C358.345,381.105,357.636,386.671,355.926,391.466
		z M310.743,460.768c-14.396,1.005-29.657-14.016,34.207-26.215C336.107,450.361,324.726,459.791,310.743,460.768z"/>
	<path fill="#fff" d="M434.533,369.295c-2.732,6.557-4.921,13.327-6.547,20.309c-2.614,11.43-4.961,25.484,7.149,25.576
		c3.11,0.025,17.958-11.125,14.602-15.312c0,0-26.053,29.241-14.477-14.346c1.221-3.166,3.293-10.585,5.959-16.821
		c55.874-7.179,51.79-33.198,38.207-36.179c-7.799-1.713-18.727,2.457-23.333,5.667c-6.848,4.77-13.65,15.037-16.31,20.011
		c-1.498,2.813-1.557,2.736-2.835,5.631c-18.692,2.572-48.188-0.264-64.392-6.22C383.232,363.152,414.531,368.954,434.533,369.295z
		 M473.1,338.189c12.556-0.877,14.951,18-28.902,24.188C451.91,348.587,460.904,339.041,473.1,338.189z"/>
</g>
</svg>
