<?xml version="1.0" encoding="utf-8"?>
<!-- Generator: Adobe Illustrator 16.0.0, SVG Export Plug-In . SVG Version: 6.00 Build 0)  -->
<!DOCTYPE svg PUBLIC "-//W3C//DTD SVG 1.1//EN" "http://www.w3.org/Graphics/SVG/1.1/DTD/svg11.dtd">
<svg version="1.1" id="Layer_1" xmlns="http://www.w3.org/2000/svg" xmlns:xlink="http://www.w3.org/1999/xlink" x="0px" y="0px"
	 width="133.583px" height="199.272px" viewBox="18.827 2.462 133.583 199.272"
	 enable-background="new 18.827 2.462 133.583 199.272" xml:space="preserve">
<g>
	<g>
		<path fill="#5E595B" d="M79.936,15.306c-33.014,0-59.78,26.767-59.78,59.78c0,33.015,26.767,59.777,59.78,59.777
			c33.01,0,59.777-26.764,59.777-59.777S112.946,15.306,79.936,15.306z M79.936,108.215c-18.296,0-33.129-14.835-33.129-33.132
			c0-18.293,14.833-33.125,33.129-33.125c18.293,0,33.128,14.832,33.128,33.125C113.064,93.38,98.229,108.215,79.936,108.215z"/>
	</g>
	<g>
		<circle fill="#5E595B" cx="139.208" cy="15.666" r="13.204"/>
	</g>
	<g>
		<path fill="#5E595B" d="M104.12,153.866c-4.861,0-61.08,0-61.08,0v-0.007c-11.703-0.067-21.309-8.954-22.519-20.355
			c-1.096,3.494-1.694,7.205-1.694,11.061c0,20.327,16.479,36.804,36.808,36.804c4.863,0,61.082,0,61.082,0v0.007
			c11.699,0.075,21.308,8.962,22.515,20.359c1.101-3.494,1.695-7.205,1.695-11.061C140.926,170.351,124.45,153.866,104.12,153.866z"
			/>
	</g>
</g>
</svg>
