<?xml version="1.0" encoding="utf-8"?>
<!-- Generator: Adobe Illustrator 16.0.0, SVG Export Plug-In . SVG Version: 6.00 Build 0)  -->
<!DOCTYPE svg PUBLIC "-//W3C//DTD SVG 1.1//EN" "http://www.w3.org/Graphics/SVG/1.1/DTD/svg11.dtd">
<svg version="1.1" id="Layer_1" xmlns="http://www.w3.org/2000/svg" xmlns:xlink="http://www.w3.org/1999/xlink" x="0px" y="0px"
	 width="133.583px" height="199.271px" viewBox="50.827 13.462 133.583 199.271"
	 enable-background="new 50.827 13.462 133.583 199.271" xml:space="preserve">
<g>
	<g>
		<path fill="#5E595B" d="M111.936,26.306c-33.013,0-59.78,26.767-59.78,59.781c0,33.014,26.767,59.777,59.78,59.777
			c33.01,0,59.777-26.764,59.777-59.777C171.713,53.073,144.946,26.306,111.936,26.306z M111.936,119.215
			c-18.296,0-33.129-14.835-33.129-33.132c0-18.293,14.833-33.125,33.129-33.125c18.293,0,33.128,14.832,33.128,33.125
			C145.064,104.38,130.229,119.215,111.936,119.215z"/>
	</g>
	<g>
		<circle fill="#5E595B" cx="171.207" cy="26.666" r="13.204"/>
	</g>
	<g>
		<path fill="#5E595B" d="M136.119,164.866c-4.861,0-61.079,0-61.079,0v-0.007c-11.703-0.067-21.309-8.954-22.519-20.355
			c-1.096,3.494-1.694,7.205-1.694,11.06c0,20.327,16.479,36.804,36.808,36.804c4.864,0,61.083,0,61.083,0v0.007
			c11.698,0.075,21.307,8.962,22.514,20.359c1.101-3.494,1.695-7.205,1.695-11.06C172.927,181.351,156.45,164.866,136.119,164.866z"
			/>
	</g>
</g>
</svg>
