<?xml version="1.0" encoding="utf-8"?>
<!-- Generator: Adobe Illustrator 16.0.0, SVG Export Plug-In . SVG Version: 6.00 Build 0)  -->
<!DOCTYPE svg PUBLIC "-//W3C//DTD SVG 1.1//EN" "http://www.w3.org/Graphics/SVG/1.1/DTD/svg11.dtd">
<svg version="1.1" id="Layer_1" xmlns="http://www.w3.org/2000/svg" xmlns:xlink="http://www.w3.org/1999/xlink" x="0px" y="0px"
	 width="348px" height="541.424px" viewBox="0 0 348 541.424" enable-background="new 0 0 348 541.424" xml:space="preserve">
<g>
	<g>
		<path fill="#F3EDEA" d="M159.563,33.543c1.019-0.026,2.041-0.038,3.063-0.045C161.604,33.506,160.582,33.515,159.563,33.543z"/>
		<path fill="#F3EDEA" d="M155.336,33.711c0.394-0.02,0.789-0.036,1.184-0.053C156.125,33.676,155.73,33.69,155.336,33.711z"/>
		<path fill="#F3EDEA" d="M151.367,33.965c0.103-0.007,0.205-0.015,0.307-0.023C151.571,33.95,151.469,33.957,151.367,33.965z"/>
		<path fill="#F3EDEA" d="M39.073,230.952c0.194,0.137,0.386,0.271,0.586,0.412c-0.347-0.887-0.662-1.791-0.994-2.686
			c-0.846-4.789-1.56-9.645-2.121-14.574C28.776,145.941,50.915,83.839,89.526,51.404C36.958,78.361,1,132.943,1,195.902
			c0,68.137,42.137,126.47,101.864,150.577C72.074,321.484,48.252,280.197,39.073,230.952z"/>
	</g>
	<g>
		<defs>
			<path id="SVGID_1_" d="M89.844,51.127c-38.809,32.361-61.09,94.625-53.299,162.978c0.56,4.929,1.275,9.785,2.12,14.574
				c0.332,0.895,0.647,1.799,0.994,2.687c-0.199-0.142-0.391-0.276-0.585-0.412c9.199,49.356,33.109,90.724,64.001,115.703
				c18.779,7.517,39.281,11.661,60.757,11.661c12.279,0,24.24-1.363,35.746-3.928c-3.116-14.526-9.387-28.412-18.637-40.526
				c57.207-15.221,97.334-77.234,92.388-148.298c-4.578-65.778-46.337-118.54-99.129-131.749c-3.43-0.215-6.885-0.337-10.368-0.337
				C137.194,33.479,112.05,39.845,89.844,51.127"/>
		</defs>
		<clipPath id="SVGID_2_">
			<use xlink:href="#SVGID_1_"  overflow="visible"/>
		</clipPath>
		<g clip-path="url(#SVGID_2_)">
			<g>
				<defs>
					<rect id="SVGID_3_" x="26.027" y="2.298" width="634.079" height="448.778"/>
				</defs>
				<clipPath id="SVGID_4_">
					<use xlink:href="#SVGID_3_"  overflow="visible"/>
				</clipPath>
				<g clip-path="url(#SVGID_4_)">
					<defs>
						<rect id="SVGID_5_" x="26.779" y="3.049" width="632.577" height="447.276"/>
					</defs>
					<clipPath id="SVGID_6_">
						<use xlink:href="#SVGID_5_"  overflow="visible"/>
					</clipPath>
				</g>
				<g clip-path="url(#SVGID_4_)">
					<defs>
						<rect id="SVGID_7_" x="26.779" y="3.049" width="632.577" height="447.276"/>
					</defs>
					<clipPath id="SVGID_8_">
						<use xlink:href="#SVGID_7_"  overflow="visible"/>
					</clipPath>
					<g clip-path="url(#SVGID_8_)">
						<g>
							<defs>
								<rect id="SVGID_9_" x="-32.852" y="-470.781" width="836.659" height="1306.471"/>
							</defs>
							<clipPath id="SVGID_10_">
								<use xlink:href="#SVGID_9_"  overflow="visible"/>
							</clipPath>
							<g clip-path="url(#SVGID_10_)">
								<defs>
									<rect id="SVGID_11_" x="-32.852" y="-470.78" width="836.659" height="1306.47"/>
								</defs>
								<clipPath id="SVGID_12_">
									<use xlink:href="#SVGID_11_"  overflow="visible"/>
								</clipPath>
								<path clip-path="url(#SVGID_12_)" fill="none" stroke="#F3EDEA" stroke-width="0.25" stroke-miterlimit="10" d="
									M193.781,272.82c0,0,0.378-2.943,3.404-1.68c1.976,2.563,0.674,4.076,5.044,7.397c4.372,3.237,9.627,6.263,12.274,7.188
									C209.25,283.792,199.643,280.173,193.781,272.82z"/>
								
									<circle clip-path="url(#SVGID_12_)" fill="none" stroke="#F3EDEA" stroke-width="0.25" stroke-miterlimit="10" cx="281.364" cy="141.862" r="3.097"/>
								
									<circle clip-path="url(#SVGID_12_)" fill="none" stroke="#F3EDEA" stroke-width="0.25" stroke-miterlimit="10" cx="292.741" cy="148.142" r="2.018"/>
								
									<circle clip-path="url(#SVGID_12_)" fill="none" stroke="#F3EDEA" stroke-width="0.25" stroke-miterlimit="10" cx="319.213" cy="125.923" r="0.84"/>
								
									<circle clip-path="url(#SVGID_12_)" fill="none" stroke="#F3EDEA" stroke-width="0.25" stroke-miterlimit="10" cx="312.821" cy="134.866" r="1.009"/>
								
									<circle clip-path="url(#SVGID_12_)" fill="none" stroke="#F3EDEA" stroke-width="0.25" stroke-miterlimit="10" cx="276.098" cy="159.007" r="3.292"/>
								
									<circle clip-path="url(#SVGID_12_)" fill="none" stroke="#F3EDEA" stroke-width="0.25" stroke-miterlimit="10" cx="102.54" cy="175.554" r="3.139"/>
								
									<circle clip-path="url(#SVGID_12_)" fill="none" stroke="#F3EDEA" stroke-width="0.25" stroke-miterlimit="10" cx="115.095" cy="162.547" r="3.167"/>
								
									<circle clip-path="url(#SVGID_12_)" fill="none" stroke="#F3EDEA" stroke-width="0.25" stroke-miterlimit="10" cx="97.945" cy="160.759" r="1.541"/>
								
									<circle clip-path="url(#SVGID_12_)" fill="none" stroke="#F3EDEA" stroke-width="0.25" stroke-miterlimit="10" cx="118.811" cy="175.877" r="2.69"/>
								
									<circle clip-path="url(#SVGID_12_)" fill="none" stroke="#F3EDEA" stroke-width="0.25" stroke-miterlimit="10" cx="131.548" cy="174.546" r="1.009"/>
								
									<circle clip-path="url(#SVGID_12_)" fill="none" stroke="#F3EDEA" stroke-width="0.25" stroke-miterlimit="10" cx="84.299" cy="162.954" r="1.487"/>
								<polygon clip-path="url(#SVGID_12_)" fill="none" stroke="#F3EDEA" stroke-width="0.25" stroke-miterlimit="10" points="
									309.459,140.99 309.037,140.99 308.617,140.99 309.037,140.99 								"/>
								
									<circle clip-path="url(#SVGID_12_)" fill="none" stroke="#F3EDEA" stroke-width="0.25" stroke-miterlimit="10" cx="305.698" cy="143.014" r="3.097"/>
								<path clip-path="url(#SVGID_12_)" fill="none" stroke="#F3EDEA" stroke-width="0.25" stroke-miterlimit="10" d="
									M407.753-165.032c5.016,21.8,16.967,42.445,28.124,61.557c18.47,31.642,40.676,61.155,65.355,88.199
									c18.034,19.763,38.975,36.655,58.376,55.031c19.423,18.395,37.736,38.26,52.179,60.863
									c14.144,22.132,23.27,47.471,23.419,73.899c0.178,31.611-12.381,63.95-29.438,90.147
									c-13.105,20.129-31.104,36.618-53.755,45.159c-16.617,6.267-35.07,6.93-52.487,4.299
									c-31.008-4.683-57.809-20.689-78.813-44.014c-8.473-9.408-15.34-20.36-18.468-32.703c-2.283-9.005-1.59-16.349,0.769-25.454
									c4.73-18.243,16.183-34.333,27.936-48.727c4.501-5.515,9.159-10.934,13.892-16.251c5.966-6.699,14.987-11.176,23.07-14.687
									c22.042-9.574,49.096-11.246,69.978,1.958c13.17,8.329,22.322,23.07,26.545,37.819c3.224,11.259,0.563,21.835-5.883,31.385
									c-5.491,8.14-13.139,14.695-21.71,19.406c-10.486,5.765-23.46,5.639-35.03,4.262c-8.248-0.979-16.508-3.247-23.442-7.934
									c-5.976-4.038-5.372-9.836-3.765-16.138c0.877-3.444,2.354-6.771,4.361-9.7c2.62-3.82,5.692-3.805,10.154-3.533
									c3.668,0.224,8.024,2.527,11.606,1.248c4.91-1.756,4.815-11.6,4.136-15.408c-0.392-2.201-2.034-10.582-6.188-7.984
									c-3.879,2.425-4.205,10.187-3.513,14.064c0.043,0.24,0.085,0.479,0.128,0.718c0.431-3.707,0.861-7.416,1.294-11.123
									c1.847-3.681,2.861-2.495-0.422-3.153c-1.691-0.34-3.37-0.695-5.071-0.984c-3.319-0.567-7.281-0.79-10.469,0.521
									c-5.142,2.113-8.187,7.796-10.58,12.469c-6.884,13.438-8.676,31.182-4.754,45.694c6.902,25.548,45.537,28.786,66.617,22.22
									c20.406-6.357,35.692-26.001,41.504-45.847c8.947-30.552-4.401-67.753-28.99-87.312
									c-19.917-15.843-47.147-15.265-70.25-8.027c-9.846,3.085-19.384,7.76-27.583,14.05c-5.82,4.463-10.387,10.36-15.141,15.889
									c-27.881,32.428-50.211,73.662-36.361,117.454c9.362,29.607,34.58,53.426,61.004,68.471
									c5.987,3.409,12.57,5.931,19.07,8.144c33.649,11.452,70.623,10.223,100.766-10.037
									c23.359-15.699,39.291-40.322,50.761-65.514c13.962-30.661,20.799-64.04,17.743-97.69
									c-5.123-56.389-41.62-101.243-81.001-138.884C550.366,6.309,536.76-5.58,523.444-17.786
									c-19.304-17.694-36.152-38.261-51.793-59.212c-14.129-18.926-27.067-38.842-38.208-59.673
									c-6.886-12.876-13.994-26.825-17.003-39.902c-0.685-2.976-3.781-8.23-6.884-4.102
									C406.409-176.485,406.646-169.845,407.753-165.032z"/>
								<path clip-path="url(#SVGID_12_)" fill="none" stroke="#F3EDEA" stroke-width="0.25" stroke-miterlimit="10" d="
									M357.738-192.865c2.131,26.296,9.222,52.783,17.525,77.7C393.518-60.384,422.9-9.219,464.332,31.325
									c18.551,18.151,39.961,31.852,60.076,48.007c20.713,16.633,40.008,36.248,52.995,59.62
									c12.294,22.129,20.548,51.455,10.277,75.876c-9.032,21.48-30.354,36.719-52.134,43.359
									c-29.611,9.026-72.134,2.419-80.878-32.654c-3.014-12.085,6.917-26.863,16.257-35.228c4.291-3.842,9.65-7.667,15.32-9.089
									c1.612-0.405,4.437-0.68,5.576-0.313c0.766,0.247,1.434,0.698,2.066,1.181c0.257,0.195-0.755-1.887-0.465-0.76
									c0.757,2.915,3.746,8.28,6.884,4.102c3.09-4.112,3.03-10.914,1.805-15.644c-5.635-21.737-27.559-7.74-37.725,2.107
									c-18.754,18.165-25.095,47.509-16.351,71.945c17.889,50.009,80.65,49.123,117.882,22.565
									c49.877-35.576,41.941-106.123,13.279-152.759c-13.955-22.704-33.633-41.65-54.355-58.152
									c-8.189-6.521-16.703-12.617-25.292-18.597c-12.92-8.996-24.752-19.725-35.776-30.934
									c-37.477-38.101-64.604-85.899-81.108-136.561c-2.943-9.037-5.528-18.191-7.824-27.414
									c-1.011-4.063-1.941-8.146-2.819-12.24c-0.393-1.829-0.765-3.663-1.129-5.497c-0.17-0.859-0.335-1.72-0.498-2.581
									c-0.539-2.818,0.397,2.194-0.095-0.53c-1.199-6.635-2.315-13.352-2.861-20.08c-0.187-2.296-2.16-10.502-6.188-7.985
									C357.143-204.361,357.41-196.907,357.738-192.865z"/>
								<path clip-path="url(#SVGID_12_)" fill="none" stroke="#F3EDEA" stroke-width="0.25" stroke-miterlimit="10" d="
									M475.518-157.395c6.271,22.327,16.689,43.774,28.408,63.679c22.147,37.619,54.413,70.838,96.104,85.947
									c7.581,2.747,8.942-19.778,2.676-22.049c-40.599-14.711-71.076-46.078-92.99-82.446
									c-7.721-12.815-14.198-26.422-19.739-40.311c-0.997-2.502-1.949-5.024-2.872-7.555c-0.379-1.043-0.748-2.092-1.114-3.142
									c-0.382-1.094,0.571,1.734-0.279-0.832c-0.529-1.601-1.049-3.208-1.505-4.832c-0.807-2.869-3.717-8.317-6.884-4.101
									C474.276-168.983,474.206-162.061,475.518-157.395z"/>
								<path clip-path="url(#SVGID_12_)" fill="none" stroke="#F3EDEA" stroke-width="0.25" stroke-miterlimit="10" d="
									M63.253,120.458c-17.476,27.267-30.337,58.084-27.901,91.053c1.99,26.914,15.176,49.671,34.463,67.97
									c10.721,10.173,23.125,18.495,35.861,25.906c7.431,4.322,14.815,8.183,21.871,13.124c6.3,4.409,12.592,8.833,18.817,13.348
									c12.346,8.95,20.23,17.827,31.159,28.799c12.097,12.146,20.671,28.549,23.06,45.674c1.893,13.555-2.23,26.646-8.483,38.536
									c-6.346,12.064-15.953,22.714-26.063,31.736c-4.546,4.058-9.379,7.789-14.346,11.316c-6.278,4.461-17.092,4.95-24.586,6.16
									c-23.272,3.749-48.52,3.754-70.182-6.592c-14.523-6.938-26.306-19.148-33.328-32.724c-3.621-6.998-5.531-12.467-7.27-18.599
									c-0.855-3.017-1.575-6.066-2.228-9.132c-0.154-0.726-0.297-1.453-0.441-2.179c-0.495-2.504,0.424,2.372-0.018-0.091
									c-0.28-1.559-0.527-3.119-0.765-4.685c-0.666-4.391-1.133-8.806-1.606-13.222c-0.138-1.276-0.274-2.553-0.48-3.822
									c-0.195-1.213-0.314-0.525-0.179-1.246c0.511-2.711,1.543-5.136,2.726-7.614c6.607-13.855,20.516-23.943,33.351-31.487
									c15.055-8.85,34.557-12.384,51.846-9.955c12.079,1.697,22.738,7.952,31.836,15.818
									c10.901,9.426,17.411,23.707,17.385,38.233c-0.038,22.604-23.913,38.849-44.148,41.407
									c-10.51,1.33-22.868-0.689-31.922-6.332c-3.06-1.908-5.352-4.43-7.267-7.459c0.257,0.405-1.466-3.57-0.866-1.795
									c-0.292-0.864-0.505-1.754-0.72-2.639c0.58,2.396-0.054-0.457-0.105-0.844c-0.443-3.35-0.103,1.012-0.101-2.342
									c0-0.553,0.21-3.55-0.014-0.49c0.063-0.863,0.168-1.723,0.272-2.581c0.073-0.559,0.153-1.119,0.241-1.678
									c0.422-2.792-0.461,2.2,0.089-0.495c0.305-1.486,0.684-2.958,1.085-4.422c0.294-1.075,0.628-2.139,0.971-3.199
									c-0.903,2.795,0.224-0.569,0.476-1.228c0.357-0.937,0.74-1.867,1.156-2.78c0.062-0.132,0.121-0.266,0.183-0.398
									c0.884-1.923,0.036-0.2,0.528-0.995c1.552-2.497,3.471-4.647,5.799-6.429c9.526-7.283,21.55-3.379,30.931,2.016
									c6.355,3.656,8.813-18.518,2.674-22.048c-11.025-6.344-23.972-9.909-35.427-2.614c-5.07,3.229-9.406,8.71-11.769,14.227
									c-4.798,11.208-7.698,23.561-7.206,35.8c0.396,9.879,2.65,19.938,8.952,27.804c6.834,8.529,17.64,11.967,28.079,13.401
									c27.131,3.728,53.069-12.31,63.202-37.512c6.277-15.618,6.079-33.146,2.163-49.298c-2.138-8.819-5.927-17.286-10.427-25.134
									c-2.923-5.099-8.116-9.266-12.539-13.087c-23.766-20.547-53.707-18.894-81.713-8.43
									c-14.678,5.486-29.285,18.721-38.411,31.232c-7.384,10.122-11.931,22.917-11.268,35.528
									c0.543,10.33,2.132,20.848,4.043,30.998c5.885,31.258,21.513,61.675,51.583,75.519
									c22.035,10.146,47.312,10.033,70.825,6.456c7.943-1.208,15.795-2.964,23.577-4.945c5.473-1.394,11.384-7.699,15.638-11.276
									c10.533-8.854,19.979-19.073,27.545-30.577c17.995-27.366,22.054-61.777,10.915-92.601
									c-3.143-8.697-7.374-16.798-12.235-24.648c-3.952-6.386-9.209-11.172-14.398-16.51c-4.676-4.808-9.088-9.877-13.96-14.49
									c-5.728-5.419-12.215-9.994-18.606-14.585c-6.375-4.581-12.813-9.074-19.246-13.574c-7.213-5.045-15.326-8.754-22.88-13.3
									c-22.731-13.67-44.862-31.792-54.741-57.153c-11-28.242,4.523-59.529,19.619-83.084c2.861-4.464,3.102-10.613,1.806-15.643
									C69.468,121.967,66.147,115.943,63.253,120.458z"/>
								<path clip-path="url(#SVGID_12_)" fill="none" stroke="#F3EDEA" stroke-width="0.25" stroke-miterlimit="10" d="
									M-20.814,250.197c-2.985,3.383-7.653,5.119-11.868,2.468c-4.309-2.71-1.116-0.345-1.484,4.238
									c-0.004,0.055,2.32-3.818,3.312-5.037c6.298-7.748,14.484-10.406,22.101-4.052c5.774,4.817,9.928,14.102,11.042,20.331
									c1.395,7.795-0.611,15.686-7.847,23.675c-9.169,10.124-24.876,13.983-38.265,12.951c-11.69-0.903-18.949-8.27-22.653-17.828
									c-1.057-2.729,0.517,1.744-0.393-1.161c-0.292-0.932-0.54-1.873-0.788-2.818c-0.584-2.211-0.839-3.68-0.988-4.57
									c-0.936-5.686-1.128-9.608-1.219-14.841c-0.25-14.479,1.568-28.934,3.782-43.213c5.852-37.73,18.86-74.025,33.805-109.059
									C-18.753,79.584-2.57,45.956,21.176,20.398c0.464-0.499,0.933-0.997,1.423-1.472c4.651-4.492,1.912-26.495-5.078-19.745
									C12.779,3.762,8.754,9.216,4.863,14.505C-7.075,30.732-17.054,48.434-26.096,66.404
									c-15.345,30.497-27.352,62.601-37.69,95.101C-74.236,194.359-80.499,230.38-79.9,264.981
									c0.301,17.422,2.396,38.849,14.754,52.386c7.847,8.595,18.955,11.249,30.235,10.12
									c18.373-1.839,34.119-10.977,42.455-28.003c10.161-20.758,5.905-49.421-7.785-67.605
									c-3.932-5.223-9.48-10.133-16.215-10.884c-9.946-1.106-19.517,10.19-23.806,17.736c-4.809,8.454-6.636,25.053,0.838,32.617
									c7.636,7.725,16.745,6.463,23.688-1.406c3.296-3.736,2.944-11.225,1.806-15.644
									C-14.772,251.033-17.46,246.396-20.814,250.197z"/>
								<path clip-path="url(#SVGID_12_)" fill="none" stroke="#F3EDEA" stroke-width="0.25" stroke-miterlimit="10" d="
									M368.239,400.681c1.091-2.966,3.357-2.625,0.675-2.42c-2.843,0.219-2.434-1.522-0.656,1.881
									c0.492,2.695,0.982,5.39,1.473,8.085c0.354,8.198-4.262,9.528,0.602,5.959c0.645-0.474-0.354,0.152-1.007-0.141
									c-1.057-0.474-1.184-2.02-1.319-2.83c0.09,0.546,0.182,3.321,0.094,0.519c0.01,0.327-0.188,3.559,0.013,1.08
									c-0.179,2.208-0.129,2.705-1.023,5.289c-4.573,13.205-17.067,17.327-30.033,18.03c-26.78,1.451-43.722-23.854-41.392-47.987
									c2.632-27.254,19.189-52.886,33.988-75.095c16.316-24.483,34.839-47.415,51.071-71.955
									c35.662-53.914,40.845-119.42,33.235-182.179c-8.424-69.492-31.796-136.468-56.233-201.7
									c-7.651-20.427-15.542-40.765-23.156-61.206c-1.619-4.347-5.388-3.924-7.114,0c-2.2,5-1.872,11.144,0,16.167
									c23.351,62.686,48.541,124.756,64.803,189.791c15.509,62.015,24.51,131.302-1.42,191.833
									c-10.611,24.766-28.104,46.23-43.885,67.828c-17.868,24.453-35.734,49.38-48.398,77.023
									c-11.493,25.087-17.76,54.371-9.38,81.365c4.003,12.896,11.239,24.774,22.624,32.37c12.553,8.375,28.407,7.715,42.232,3.424
									c20.724-6.435,28.389-37.542,22.519-56.205c-1.069-3.401-2.58-7.504-6.52-8.217c-4.667-0.846-8.642,7.399-9.698,10.51
									c-1.914,5.634-1.229,16.863,5.586,18.855c3.715,1.087,7.989,0.024,9.437-3.904c1.854-5.04,2.206-11.153,0-16.17
									C373.635,396.773,369.845,396.322,368.239,400.681z"/>
								<path clip-path="url(#SVGID_12_)" fill="none" stroke="#F3EDEA" stroke-width="0.25" stroke-miterlimit="10" d="
									M304.22-190.51c25.801,73.784,50.267,148.491,67.09,224.902c8.831,40.106,13.315,81.829,3.35,122.179
									c-7.965,32.241-29.42,59.133-50.915,83.564c-21.589,24.536-44.262,47.854-62.369,75.206
									c-17.859,26.978-33.228,56.563-40.564,88.248c-7.396,31.947-5.01,66.415,15.611,93.019
									c18.649,24.062,46.142,41.052,75.354,48.887c28.975,7.77,60.165,3.135,83.474-16.366
									c20.912-17.494,35.597-42.493,44.207-68.103c8.936-26.58,11.396-56.744,0.67-83.179
									c-9.382-23.122-33.423-40.739-58.196-43.36c-24.729-2.618-44.226,17.006-49.088,39.972
									c-4.746,22.43,2.439,50.85,29.746,50.608c7.165-0.064,7.095-22.931,0-22.867c-7.104,0.063-14.179-1.765-18.551-7.304
									c-1.389-1.76-0.982-1.282-1.728-2.913c-0.141-0.305-0.962-2.75-0.305-0.67c-0.245-0.772-0.421-1.564-0.597-2.354
									c0.594,2.657,0.063-0.033,0.007-0.534c-0.326-2.868,0.05,2.579,0.008-0.342c-0.007-0.582,0.215-3.472-0.025-0.423
									c0.036-0.469,0.613-4.198,0.133-1.66c0.775-4.089,1.165-4.977,3.121-8.976c1.494-3.056,4.012-6.302,6.641-9.103
									c5.534-5.906,13.506-9.43,21.421-10.476c22.99-3.04,49.198,13.662,59.095,33.876c10.816,22.088,3.675,48.71-5.852,69.884
									c-10.932,24.298-28.963,47.598-53.748,58.689c-28.373,12.697-62.054,5.428-88.49-8.433
									c-25.197-13.207-51.947-36.233-56.166-65.886c-4.334-30.479,11.225-62.694,25.513-88.577
									c15.461-28.008,35.482-52.535,56.876-76.169c22.329-24.664,44.97-49.167,60.505-78.874
									c18.276-34.955,21.867-76.355,19.284-115.137c-2.657-39.89-12.594-79.083-22.887-117.585
									c-15.884-59.41-35.218-117.884-55.51-175.914c-1.547-4.421-5.42-3.853-7.114,0
									C301.988-201.608,302.437-195.61,304.22-190.51z"/>
								<path clip-path="url(#SVGID_12_)" fill="none" stroke="#F3EDEA" stroke-width="0.25" stroke-miterlimit="10" d="
									M315.843-196.897c22.923,69.855,48.661,139.24,65.19,210.989c9.519,41.321,16.125,82.863,10.801,125.29
									c-4.568,36.398-21.592,69.428-41.834,99.472c-19.77,29.342-42.337,56.73-62.758,85.622
									c-19.936,28.2-39.322,59.882-38.324,95.646c0.77,27.628,14.738,53.349,36.93,69.616
									c23.193,17.001,54.432,20.432,81.68,12.561c19.762-5.706,35.037-19.952,41.442-39.576
									c6.787-20.791,7.344-46.842-4.037-66.188c-6.849-11.641-20.259-24.195-34.976-21.999
									c-14.467,2.159-12.238,20.192-8.414,30.042c1.292,3.333,2.755-3.047,2.091-4.754c-2.707-6.977-3.87-15.623,4.935-18.256
									c7.208-2.156,15.183,1.419,21.047,5.369c23.072,15.549,24.966,49.127,16.516,73.176
									c-9.254,26.34-34.788,37.484-60.946,39.211c-30.921,2.038-60.478-11.047-78.619-36.367
									c-9.302-12.982-14.296-28.747-14.739-44.653c-0.546-19.587,6.997-38.336,16.079-55.312
									c17.441-32.598,41.971-61.598,64.05-91.093c20.466-27.339,39.918-55.803,52.02-87.953
									c12.88-34.218,14.878-71.466,11.379-107.586c-4.629-47.821-18.386-95.05-32.422-140.828
									c-13.968-45.559-29.679-90.551-44.533-135.822C317.033-204.453,315.145-199.03,315.843-196.897z"/>
								<path clip-path="url(#SVGID_12_)" fill="none" stroke="#F3EDEA" stroke-width="0.25" stroke-miterlimit="10" d="
									M362.563,412.582c-5.253,0.043-10.332,1.997-15.39,3.188c-8.573,2.021-16.868,0.751-24.159-4.272
									c-16.688-11.492-12.68-38.965-5.311-54.921c12.464-26.986,50.013-34.361,76.546-35.034
									c15.938-0.405,30.849,2.816,44.324,11.555c12.788,8.291,24.912,21.372,32.548,34.556
									c7.896,13.634,10.546,30.175,12.112,45.617c1.628,16.074,1.238,32.283,0.042,48.367c-0.115,1.558-0.253,3.114-0.395,4.672
									c-0.141,1.567,1.234,3.333,1.527,0.911c3.438-28.425,2.908-59.182-5.467-86.728c-4.117-13.536-11.797-24.144-21.138-34.598
									c-9.427-10.552-20.594-19.407-33.949-24.365c-13.684-5.078-28.703-4.772-42.996-3.181
									c-13.856,1.543-27.632,5.255-40.025,11.697c-11.326,5.887-20.736,14.943-25.683,26.807
									c-4.744,11.382-7.046,27.54-4.29,39.646c2.414,10.611,9.933,20.871,21.07,23.467c5.772,1.343,11.22,0.706,16.892-0.808
									c4.651-1.241,9.014-3.855,13.792-4.474C363.27,414.598,363.212,412.577,362.563,412.582z"/>
								<path clip-path="url(#SVGID_12_)" fill="none" stroke="#F3EDEA" stroke-width="0.25" stroke-miterlimit="10" d="
									M310.316,343.473c20.783-25.025,57.014-40.424,90.328-37.431c31.63,2.841,64.577,21.493,81.139,48.69
									c12.919,21.224,17.151,48.175,17.781,71.894c0.107,4.042,0.087,8.091-0.003,12.133c-0.038,1.746-0.106,3.49-0.183,5.234
									c-0.021,0.479-0.199,3.743-0.018,0.687c-0.051,0.833-0.109,1.667-0.168,2.5c-0.217,3.063-0.473,6.137-0.896,9.18
									c-0.548,3.948-0.457,11.582,3.515,14.065c4.102,2.564,5.877-5.743,6.188-7.985c1.945-14.012,2.059-28.477,1.371-42.573
									c-1.341-27.541-6.456-55.753-19.809-80.169c-15.774-28.85-45.416-47.45-77.098-54.65
									c-24.282-5.518-49.539-0.831-71.412,10.571c-13.201,6.882-26.24,16.58-35.814,28.109
									c-3.223,3.882-2.975,11.104-1.806,15.643C304.24,342.506,307.039,347.419,310.316,343.473z"/>
								<path clip-path="url(#SVGID_12_)" fill="none" stroke="#F3EDEA" stroke-width="0.25" stroke-miterlimit="10" d="
									M351.27,302.647c0.024,0.001,0.048,0.004,0.072,0.006c0.236,0.086,0.416-0.053,0.548-0.236
									c5.916-8.166,13.701-15.192,20.208-22.9c8.859-10.496,19.45-22.956,23.017-36.503c0.065-0.247-0.179-0.942-0.446-0.499
									c-4.306,7.128-7.915,14.458-12.771,21.284c-5.074,7.134-10.769,13.829-16.557,20.388c-3.93,4.455-7.974,8.811-11.786,13.368
									c-1.027,1.229-3.187,3.231-2.443,5C351.142,302.625,351.193,302.666,351.27,302.647z"/>
								<path clip-path="url(#SVGID_12_)" fill="none" stroke="#F3EDEA" stroke-width="0.25" stroke-miterlimit="10" d="
									M387.494,287.969c4.688-2.551,7.031-8.074,9.223-12.691c2.855-6.013,5.313-12.886,5.887-19.56
									c0.035-0.398-0.42-1.013-0.641-0.389c-1.792,5.069-3.057,10.287-4.958,15.332c-2.382,6.309-6.012,11.512-9.583,17.133
									C387.394,287.84,387.406,288.016,387.494,287.969z"/>
								<path clip-path="url(#SVGID_12_)" fill="none" stroke="#F3EDEA" stroke-width="0.25" stroke-miterlimit="10" d="
									M494.007,364.986c7.843,5.572,19.132,6.668,28.487,7.295c11.094,0.746,21.749-1.059,32.287-4.394
									c8.938-2.826,17.459-7.082,25.146-12.438c7.845-5.469,17.373-12.096,22.488-20.295c0.595-0.955,0.363-4.63-1.519-3.697
									c-7.449,3.704-13.567,11.427-20.229,16.502c-7.138,5.438-15.04,9.651-23.38,12.914c-9.783,3.827-19.937,5.786-30.418,6.104
									c-11.296,0.339-21.492-3.328-32.495-4.399C493.336,362.477,493.402,364.557,494.007,364.986z"/>
								<path clip-path="url(#SVGID_12_)" fill="none" stroke="#F3EDEA" stroke-width="0.25" stroke-miterlimit="10" d="
									M502.31,387.8c17.218,10.008,38.426,12.865,57.867,9.326c15.174-2.764,33.272-11.022,41.757-24.494
									c0.443-0.704,0.066-2.666-1.028-1.916c-6.549,4.487-12.236,9.871-19.194,13.828c-7.308,4.159-15.425,6.844-23.625,8.567
									c-19.269,4.05-37.524-0.418-55.443-7.447C501.595,385.252,501.574,387.371,502.31,387.8z"/>
								<path clip-path="url(#SVGID_12_)" fill="none" stroke="#F3EDEA" stroke-width="0.25" stroke-miterlimit="10" d="
									M488.354,189.072c0.061,0,0.059-0.134-0.003-0.134C488.291,188.938,488.295,189.072,488.354,189.072z"/>
								<path clip-path="url(#SVGID_12_)" fill="none" stroke="#F3EDEA" stroke-width="0.25" stroke-miterlimit="10" d="
									M481.109,180.349c-6.132,5.721,4.128,16.45,7.873,20.371c8.862,9.279,22.132,7.004,32.273,0.889
									c20.934-12.624,18.324-41.826,2.019-57.157c-20.057-18.854-53.889-8.062-74.603,3.789
									c-22.157,12.677-51.256,37.124-49.302,65.668c0.065,0.951,1.212,2.026,1.657,0.636c3.387-10.57,6.344-20.238,12.807-29.472
									c6.751-9.647,15.945-17.523,25.485-24.293c18.125-12.863,37.871-20.574,60.308-19.811
									c21.042,0.717,38.935,22.444,31.168,43.333c-3.836,10.318-17.256,16.816-27.557,17.372c-5.218,0.28-9.04-1.841-12.747-5.193
									c-2.178-1.969-10.84-10.159-8.155-13.851C482.907,181.845,482.247,179.288,481.109,180.349z"/>
								<path clip-path="url(#SVGID_12_)" fill="none" stroke="#F3EDEA" stroke-width="0.25" stroke-miterlimit="10" d="
									M488.354,158.237c-24.66,1.373-50.25,14.88-60.999,37.671c-9.398,19.926-7.415,46.719,1.242,66.505
									c10.003,22.861,32.287,38.42,56.026,44.183c33.458,8.122,69.15-5.285,95.402-25.87
									c21.416-16.795,37.066-40.787,41.771-67.765c5.599-32.111-2.943-64.198-17.351-92.876
									c-14.374-28.612-32.775-55.688-56.457-77.394c-13.332-12.218-28.519-22.094-42.388-33.648
									c-14.332-11.938-27.162-25.821-39.293-39.945c-36.963-43.038-69.12-94.96-77.765-151.87
									c-0.514-3.379-2.482-0.898-2.142,1.341c9.547,62.841,46.285,119.459,88.358,165.715
									c13.726,15.09,28.46,28.736,44.771,40.978c20.377,15.296,39.03,31.337,54.535,51.752
									c22.949,30.217,43.082,66.733,46.856,105.03c3.139,31.832-8.785,62.115-31.119,84.63
									c-24.641,24.84-61.353,40.654-96.524,36.438c-27.009-3.236-52.644-20.339-63.665-45.53
									c-12.336-28.189-6.683-63.582,19.558-81.182c11.239-7.537,25.612-12.366,39.182-13.12
									C489.969,163.19,489.873,158.152,488.354,158.237z"/>
								<path clip-path="url(#SVGID_12_)" fill="none" stroke="#F3EDEA" stroke-width="0.25" stroke-miterlimit="10" d="
									M437.638-4.646c1.688,5.026,4.531,9.549,6.694,14.375c2.41,5.376,4.373,10.982,6.204,16.577
									c3.652,11.163,6.08,22.813,7.951,34.395c1.638,10.144,3.14,20.116,3.271,30.42c0.067,5.281-0.477,10.49-1.509,15.666
									c-1.092,5.479-4.37,10.11-5.186,15.68c-0.422,2.879,0.665,10.541,5.236,9.858c12.336-1.842,14.281-24.407,14.779-33.976
									c0.707-13.546-1.032-27.12-3.4-40.437c-2.376-13.361-5.839-26.508-10.177-39.365c-2.27-6.726-4.992-13.247-8.314-19.52
									c-2.75-5.193-5.53-10.612-10.923-13.432C437.122-17.093,436.839-7.027,437.638-4.646z"/>
								<path clip-path="url(#SVGID_12_)" fill="none" stroke="#F3EDEA" stroke-width="0.25" stroke-miterlimit="10" d="
									M399.988-69.338c6.093,18.965,10.83,37.484,14.122,57.152c2.801,16.743,6.875,33.056,8.319,50.023
									c1.813,21.278,3.866,42.532,3.298,63.914c-0.3,11.215-1.565,22.374-3.728,33.379c-2.198,11.199-6.953,21.366-9.837,32.291
									c-0.329,1.242,1.006,3.379,1.731,1.471c3.566-9.345,7.377-18.132,9.745-27.954c2.517-10.429,3.853-21.211,4.438-31.915
									c1.272-23.245-1.087-46.187-3.172-69.304c-1.562-17.3-5.692-33.849-8.758-50.885c-3.494-19.414-6.259-41.025-15.636-58.663
									C400.208-70.4,399.863-69.727,399.988-69.338z"/>
								<path clip-path="url(#SVGID_12_)" fill="none" stroke="#F3EDEA" stroke-width="0.25" stroke-miterlimit="10" d="
									M437.379,0.035c1.247,23.088,6.155,45.912,8.136,68.955c1.06,12.35,1.21,24.767,0.025,37.109
									c-1.319,13.744-5.823,26.136-9.719,39.231c-0.233,0.787,0.548,2.861,1.367,1.527c12.31-20.055,12.664-48.154,11.415-70.87
									c-1.401-25.497-6.231-50.996-10.181-76.195C438.28-1.126,437.335-0.766,437.379,0.035z"/>
								<path clip-path="url(#SVGID_12_)" fill="none" stroke="#F3EDEA" stroke-width="0.25" stroke-miterlimit="10" d="
									M454.024-168.988c-8.538,4.461,1.29,23.964,3.626,29.385c6.584,15.268,14.996,29.891,23.92,43.904
									c15.766,24.757,34.363,48.944,60.305,63.54c13.562,7.631,27.688,15.043,42.503,19.872
									c14.129,4.605,29.807,9.068,44.593,10.558c1.334,0.134,1.207-4.036,0.155-4.495c-12.435-5.428-26.586-6.954-39.608-10.634
									c-13.08-3.697-24.946-9.633-37.07-15.636c-12.027-5.958-24.053-12.363-33.636-21.937
									c-10.45-10.444-19.957-21.79-28.652-33.726c-8.783-12.056-16.591-25.028-23.807-38.067
									c-3.883-7.018-7.503-14.2-10.528-21.631c-2.102-5.163-6.965-16.087-1.741-20.729
									C454.164-168.655,454.161-169.058,454.024-168.988z"/>
								<path clip-path="url(#SVGID_12_)" fill="none" stroke="#F3EDEA" stroke-width="0.25" stroke-miterlimit="10" d="
									M143.342,306.424c0.017,0,0.017-0.052-0.001-0.052C143.326,306.372,143.326,306.424,143.342,306.424z"/>
								<path clip-path="url(#SVGID_12_)" fill="none" stroke="#F3EDEA" stroke-width="0.25" stroke-miterlimit="10" d="
									M80.269,143.204c-11.642,21.654-18.911,52.675-9.018,76.228c9.771,23.263,34.322,39.948,54.729,53.087
									c8.12,5.229,16.545,9.955,24.7,15.127c14.266,9.049,27.256,20.426,38.724,32.788c22.785,24.56,38.332,55.946,38.615,89.854
									c0.014,1.479,1.363,2.347,1.452,0.411c2.632-56.674-39.134-105.506-85.511-132.703
									c-21.158-12.408-42.836-25.393-59.491-43.694c-10.207-11.216-15.808-23.625-15.889-38.932
									c-0.093-17.527,5.252-35.561,11.882-51.635C80.517,143.605,80.396,142.968,80.269,143.204z"/>
								<path clip-path="url(#SVGID_12_)" fill="none" stroke="#F3EDEA" stroke-width="0.25" stroke-miterlimit="10" d="
									M226.592,327.905c1.768,3.161,4.09,5.446,5.336,9.045c1.618,4.68,2.089,9.813,2.467,14.721
									c0.604,7.871,0.165,15.768,0.627,23.639c0.052,0.896,0.827,1.489,0.906,0.258c0.634-9.747,0.478-19.613-0.649-29.315
									c-0.389-3.34-2.77-20.402-8.555-19.202C226.435,327.109,226.488,327.722,226.592,327.905z"/>
								<path clip-path="url(#SVGID_12_)" fill="none" stroke="#F3EDEA" stroke-width="0.25" stroke-miterlimit="10" d="
									M-74.749,181.433c-0.646-12.368,1.179-25.068,3.214-37.228c3.343-19.984,8.657-39.646,15.043-58.859
									c8.063-24.26,18.389-47.774,30.685-70.182C-12.078-9.855,4.787-32.143,22.928-54.064c0.679-0.821,0.23-4.665-0.964-3.426
									C1.559-36.312-14.878-10.584-28.79,15.202c-12.182,22.58-22.133,46.339-30.08,70.722
									c-6.202,19.027-11.066,38.588-14.127,58.372c-1.875,12.123-3.806,24.984-2.063,37.242
									C-75.001,181.956-74.731,181.76-74.749,181.433z"/>
								<path clip-path="url(#SVGID_12_)" fill="none" stroke="#F3EDEA" stroke-width="0.25" stroke-miterlimit="10" d="
									M527.97-10.465c6.135,9.984,17.411,15.375,27.585,20.387c10.646,5.246,21.498,10.039,32.373,14.783
									c10.104,4.41,20.179,8.982,29.271,15.277c11.146,7.716,17.967,18.137,24.791,29.557c0.717,1.203,1.022-1.042,0.843-1.58
									c-7.525-22.65-26.84-36.07-47.836-45.158c-11.222-4.855-22.538-9.54-33.807-14.281
									c-11.767-4.953-24.111-10.122-33.095-19.532C527.896-11.221,527.898-10.582,527.97-10.465z"/>
								<path clip-path="url(#SVGID_12_)" fill="none" stroke="#F3EDEA" stroke-width="0.25" stroke-miterlimit="10" d="
									M-15.89,231.935c0.218-6.971-1.897-14.312-2.282-21.33c-0.529-9.604-0.218-19.257,0.442-28.846
									c1.193-17.323,4.477-34.012,9.396-50.638c4.682-15.826,11.044-31.701,19.661-45.795c3.802-6.219,7.861-12.291,12.183-18.161
									c2.887-3.921,6.197-8.716,10.399-11.355c0.585-0.368,0.645-2.639-0.225-2.678c-3.809-0.17-7.363,5.798-9.36,8.341
									c-5.1,6.492-9.605,13.486-13.94,20.504C1.396,96.524-4.874,112.895-9.834,129.211c-5.529,18.186-8.617,36.585-9.779,55.549
									c-0.565,9.231-0.619,18.496-0.064,27.729c0.323,5.381-0.21,15.51,3.553,19.77C-15.951,232.456-15.893,232.027-15.89,231.935
									z"/>
								<path clip-path="url(#SVGID_12_)" fill="none" stroke="#F3EDEA" stroke-width="0.25" stroke-miterlimit="10" d="
									M103.574,479.103c25.359,7.569,45.716-9.514,55.989-31.197c11.665-24.624,16.29-54.853,6.588-80.769
									c-10.713-28.618-36.675-47.676-63.125-60.466c-12.227-5.913-24.852-10.931-37.058-16.874
									c-12.31-5.992-25.408-13.786-32.107-26.226c-1.072-1.99-1.691,1.695-1.377,2.58c7.463,21.107,33.235,30.052,52.007,38.153
									c25.187,10.869,49.602,22.64,67.276,44.292c10.635,13.031,17.097,27.945,17.761,44.847
									c0.614,15.624-3.691,31.919-9.335,46.359c-4.502,11.52-11.26,22.231-21.293,29.668c-10.49,7.773-22.813,8.287-35.308,9.063
									C103.424,478.544,103.43,479.059,103.574,479.103z"/>
								<path clip-path="url(#SVGID_12_)" fill="none" stroke="#F3EDEA" stroke-width="0.25" stroke-miterlimit="10" d="
									M27.617,306.094c2.596,11.839,10.178,20.367,20.649,26.148c9.647,5.324,24.827,10.29,35.913,8.977
									c0.528-0.063,0.508-1.596,0.061-1.756c-4.789-1.723-10.143-2.049-15.136-2.994c-6.046-1.145-11.954-2.887-17.622-5.281
									c-11.472-4.851-19.521-13.601-23.779-25.255C27.654,305.8,27.606,306.044,27.617,306.094z"/>
								<path clip-path="url(#SVGID_12_)" fill="none" stroke="#F3EDEA" stroke-width="0.25" stroke-miterlimit="10" d="
									M-3.358,335.739c2.856,8.007,13.253,11.131,20.61,13.151c10.135,2.784,22.71,5.973,33.299,5.055
									c0.492-0.043,0.481-1.523,0.057-1.653c-8.619-2.635-18.3-2.559-27.163-4.365c-8.953-1.824-21.202-4.313-26.669-12.513
									C-3.332,335.252-3.382,335.674-3.358,335.739z"/>
								<path clip-path="url(#SVGID_12_)" fill="none" stroke="#F3EDEA" stroke-width="0.25" stroke-miterlimit="10" d="
									M8.938,215.02c-2.069-23.508-4.589-45.554,3.166-68.377c7.401-21.784,15.616-42.556,32.07-59.212
									c1.458-1.478,0.113-6.294-1.797-4.36c-16.977,17.202-25.548,38.587-33.206,61.088c-7.576,22.26-8.711,48.561-2.253,71.331
									C7.387,217.144,9.084,216.655,8.938,215.02z"/>
								<path clip-path="url(#SVGID_12_)" fill="none" stroke="#F3EDEA" stroke-width="0.25" stroke-miterlimit="10" d="
									M-55.72,238.427c6.271-14.743,26.117-16.089,39.747-14.439c17.504,2.117,30.098,13.631,37.49,29.243
									c8.011,16.92,7.364,36.685,2.406,54.37c-5.817,20.747-17.667,37.797-30.606,54.686c-3.257,4.254,0.135,17.456,6.577,12.229
									c19.525-15.838,31.246-41.27,36.975-65.254c5.55-23.238,3.809-49.182-7.734-70.353
									c-10.479-19.224-26.603-30.518-48.471-31.976c-19.165-1.281-39.047,7.083-43.805,26.982
									C-64.363,239.022-58.521,245.01-55.72,238.427z"/>
								<path clip-path="url(#SVGID_12_)" fill="none" stroke="#F3EDEA" stroke-width="0.25" stroke-miterlimit="10" d="
									M-68.585,254.748c-3.857,11.18,10.92,21.559,19.402,24.568c11.668,4.136,29.304,1.681,33.228-11.994
									c0.167-0.582-0.124-3.934-1.243-2.666c-3.667,4.156-6.318,7.703-11.644,9.884c-5.089,2.083-10.986,1.982-16.312,1.118
									c-5.516-0.895-10.663-3.172-15.091-6.551c-5.2-3.971-5.798-8.828-8.194-14.363
									C-68.476,254.662-68.555,254.66-68.585,254.748z"/>
								<path clip-path="url(#SVGID_12_)" fill="none" stroke="#F3EDEA" stroke-width="0.25" stroke-miterlimit="10" d="
									M28.711,412.648c3.988-10.745,14.582-20.757,23.595-27.199c18.057-12.906,38.758-10.671,56.277,2.007
									c1.617,1.17,2.508-5.239,0.787-6.485c-18.221-13.186-39.055-14.862-57.851-2.007c-9.679,6.62-20.71,17.639-24.901,28.929
									C25.985,409.599,27.472,415.985,28.711,412.648z"/>
								<path clip-path="url(#SVGID_12_)" fill="none" stroke="#F3EDEA" stroke-width="0.25" stroke-miterlimit="10" d="
									M105.679,398.39c-9.269,5.54-19.766,14.798-15.365,26.735c1.916,5.197,9.723,7.854,14.545,8.877
									c6.604,1.401,13.334-0.025,18.937-3.692c15.363-10.063,15.693-36.275,12.38-52.105
									c-3.621-17.292-17.09-26.883-30.136-37.087c-0.469-0.367-1.665,5.49-0.392,6.486c9.102,7.12,18.542,13.498,24.748,23.521
									c9.172,14.813,8.282,39.123-5.101,51.236c-7.596,6.875-19.199,6.647-27.939,2.333c-2.305-1.139-4.358-2.714-5.929-4.744
									c-1.335-1.727,3.349-6.13,4.467-7.275c2.845-2.917,6.288-5.469,9.784-7.56C107.291,404.153,105.682,398.388,105.679,398.39z
									"/>
								<path clip-path="url(#SVGID_12_)" fill="none" stroke="#F3EDEA" stroke-width="0.25" stroke-miterlimit="10" d="
									M303.915-184.25c-0.073,36.531,6.995,72.771,18.685,107.296c12.009,35.474,29.103,71.613,51.86,101.541
									c0.595,0.783,0.783-1.559,0.47-2.054c-9.9-15.599-20.06-30.815-28.645-47.216c-8.623-16.477-15.91-33.667-22.104-51.193
									c-12.3-34.801-19.556-71.431-19.938-108.381C304.236-184.704,303.915-184.693,303.915-184.25z"/>
								<path clip-path="url(#SVGID_12_)" fill="none" stroke="#F3EDEA" stroke-width="0.25" stroke-miterlimit="10" d="
									M302.166-61.543c-10.61,24.768-28.104,46.231-43.884,67.828c-17.869,24.455-35.734,49.381-48.398,77.023
									c-11.493,25.087-17.76,54.372-9.381,81.366c4.003,12.896,11.24,24.776,22.624,32.371
									c12.551,8.374,28.407,7.717,42.233,3.425c20.723-6.437,28.389-37.544,22.519-56.208c-1.07-3.4-2.579-7.502-6.521-8.215
									c-4.666-0.846-8.64,7.399-9.698,10.51c-1.914,5.633-1.229,16.862,5.588,18.855c3.714,1.087,7.989,0.023,9.435-3.906
									c1.854-5.04,2.207-11.154,0-16.169c-1.72-3.909-5.51-4.36-7.115,0c1.091-2.965,3.358-2.626,0.675-2.42
									c-2.844,0.218-2.433-1.521-0.656,1.881c0.491,2.694,0.982,5.39,1.475,8.083c0.354,8.199-4.262,9.529,0.6,5.958
									c0.645-0.472-0.352,0.153-1.006-0.14c-1.058-0.473-1.185-2.02-1.32-2.83c0.09,0.547,0.182,3.322,0.094,0.518
									c0.011,0.327-0.187,3.559,0.014,1.081c-0.179,2.209-0.128,2.706-1.022,5.289c-4.575,13.206-17.066,17.329-30.034,18.032
									c-26.781,1.451-43.721-23.855-41.393-47.987c2.632-27.255,19.19-52.887,33.988-75.096
									c16.316-24.484,34.841-47.416,51.071-71.954c35.664-53.915,40.845-119.422,33.237-182.181"/>
								<path clip-path="url(#SVGID_12_)" fill="none" stroke="#F3EDEA" stroke-width="0.25" stroke-miterlimit="10" d="
									M103.636,412.582c-5.254,0.043-10.333,1.997-15.39,3.188c-8.574,2.021-16.868,0.751-24.16-4.272
									c-16.688-11.492-12.679-38.965-5.31-54.921c12.463-26.986,50.012-34.361,76.544-35.034
									c15.94-0.405,30.85,2.816,44.326,11.555c12.786,8.291,24.911,21.372,32.547,34.556c7.896,13.634,10.547,30.175,12.11,45.617
									c1.629,16.074,1.239,32.283,0.045,48.367c-0.117,1.558-0.254,3.114-0.395,4.672c-0.142,1.567,1.234,3.333,1.526,0.911
									c3.437-28.425,2.908-59.182-5.468-86.728c-4.117-13.536-11.796-24.144-21.137-34.598
									c-9.428-10.552-20.594-19.407-33.949-24.365c-13.684-5.078-28.702-4.772-42.997-3.181
									c-13.855,1.543-27.631,5.255-40.025,11.697c-11.326,5.887-20.735,14.943-25.681,26.807
									c-4.746,11.382-7.046,27.54-4.292,39.646c2.414,10.611,9.933,20.871,21.071,23.467c5.772,1.343,11.22,0.706,16.89-0.808
									c4.652-1.241,9.016-3.855,13.794-4.474C104.342,414.598,104.284,412.577,103.636,412.582z"/>
								<path clip-path="url(#SVGID_12_)" fill="none" stroke="#F3EDEA" stroke-width="0.25" stroke-miterlimit="10" d="
									M51.389,343.473c20.783-25.025,57.014-40.424,90.328-37.431c31.631,2.841,64.579,21.493,81.138,48.69
									c12.92,21.224,17.153,48.175,17.782,71.894c0.107,4.042,0.088,8.091-0.002,12.133c-0.039,1.746-0.106,3.49-0.183,5.234
									c-0.021,0.479-0.2,3.743-0.019,0.687c-0.049,0.833-0.107,1.667-0.167,2.5c-0.217,3.063-0.473,6.137-0.896,9.18
									c-0.547,3.948-0.457,11.582,3.515,14.065c4.103,2.564,5.876-5.743,6.188-7.985c1.944-14.012,2.057-28.477,1.37-42.573
									c-1.34-27.541-6.455-55.753-19.808-80.169c-15.775-28.85-45.416-47.45-77.098-54.65
									c-24.281-5.518-49.539-0.831-71.411,10.571c-13.202,6.882-26.241,16.58-35.815,28.109
									c-3.223,3.882-2.975,11.104-1.806,15.643C45.313,342.506,48.113,347.419,51.389,343.473z"/>
								<path clip-path="url(#SVGID_12_)" fill="none" stroke="#F3EDEA" stroke-width="0.25" stroke-miterlimit="10" d="
									M235.08,364.986c7.842,5.572,19.13,6.668,28.486,7.295c11.095,0.746,21.75-1.059,32.288-4.394
									c8.937-2.826,17.459-7.082,25.146-12.438c7.845-5.469,17.372-12.096,22.487-20.295c0.596-0.955,0.363-4.63-1.517-3.697
									c-7.45,3.704-13.568,11.427-20.231,16.502c-7.137,5.438-15.04,9.651-23.381,12.914c-9.781,3.827-19.935,5.786-30.416,6.104
									c-11.295,0.339-21.494-3.328-32.495-4.399C234.408,362.477,234.477,364.557,235.08,364.986z"/>
								<path clip-path="url(#SVGID_12_)" fill="none" stroke="#F3EDEA" stroke-width="0.25" stroke-miterlimit="10" d="
									M243.384,387.8c17.216,10.008,38.425,12.865,57.865,9.326c15.174-2.764,33.273-11.022,41.758-24.494
									c0.444-0.704,0.065-2.666-1.029-1.916c-6.549,4.487-12.236,9.871-19.193,13.828c-7.309,4.159-15.425,6.844-23.626,8.567
									c-19.269,4.05-37.524-0.418-55.442-7.447C242.668,385.252,242.646,387.371,243.384,387.8z"/>
								<path clip-path="url(#SVGID_12_)" fill="none" stroke="#F3EDEA" stroke-width="0.25" stroke-miterlimit="10" d="
									M229.427,189.072c0.061,0,0.059-0.134-0.002-0.134C229.365,188.938,229.367,189.072,229.427,189.072z"/>
								<path clip-path="url(#SVGID_12_)" fill="none" stroke="#F3EDEA" stroke-width="0.25" stroke-miterlimit="10" d="
									M59.641-139.753c14.553,14.143,31.793,24.892,46.83,38.451c25.917,23.37,46.915,56.54,57.317,89.722
									c10.08,32.156,4.77,65.649-17.884,91.014c-22.781,25.509-60.21,41.035-94.09,32.71
									c-13.776-3.385-26.347-11.379-35.571-22.084C6.791,79.088,2.975,65.344,2.315,51.083
									C1.311,29.362,12.885,11.829,32.304,2.882C39.82-0.581,48.412-2.983,56.72-3.45c1.617-0.09,1.52-5.129,0-5.043
									C28.348-6.901,3.576,12.328,0.396,41.316c-2.638,24.033,5.94,47.65,24.835,62.847c24.459,19.675,57.818,18.486,85.223,6.133
									c27.243-12.281,49.249-35.274,57.417-64.255c8.626-30.616-0.467-63.076-14.895-90.355
									c-14.129-26.714-31.822-50.911-55.428-69.95c-16.273-13.126-32.588-25-47.047-40.25"/>
								
									<circle clip-path="url(#SVGID_12_)" fill="none" stroke="#F3EDEA" stroke-width="0.25" stroke-miterlimit="10" cx="84.299" cy="323.177" r="2.654"/>
								
									<circle clip-path="url(#SVGID_12_)" fill="none" stroke="#F3EDEA" stroke-width="0.25" stroke-miterlimit="10" cx="73.912" cy="241.688" r="1.911"/>
								
									<circle clip-path="url(#SVGID_12_)" fill="none" stroke="#F3EDEA" stroke-width="0.25" stroke-miterlimit="10" cx="430.515" cy="193.11" r="7.328"/>
								
									<circle clip-path="url(#SVGID_12_)" fill="none" stroke="#F3EDEA" stroke-width="0.25" stroke-miterlimit="10" cx="-32.864" cy="218.948" r="5.44"/>
								
									<circle clip-path="url(#SVGID_12_)" fill="none" stroke="#F3EDEA" stroke-width="0.25" stroke-miterlimit="10" cx="540.614" cy="353.105" r="8.07"/>
								
									<circle clip-path="url(#SVGID_12_)" fill="none" stroke="#F3EDEA" stroke-width="0.25" stroke-miterlimit="10" cx="113.51" cy="364.538" r="7.235"/>
								
									<circle clip-path="url(#SVGID_12_)" fill="none" stroke="#F3EDEA" stroke-width="0.25" stroke-miterlimit="10" cx="56.377" cy="316.35" r="3.281"/>
								
									<circle clip-path="url(#SVGID_12_)" fill="none" stroke="#F3EDEA" stroke-width="0.25" stroke-miterlimit="10" cx="148.273" cy="294.737" r="3.281"/>
								
									<circle clip-path="url(#SVGID_12_)" fill="none" stroke="#F3EDEA" stroke-width="0.25" stroke-miterlimit="10" cx="447.701" cy="163.784" r="4.372"/>
								
									<circle clip-path="url(#SVGID_12_)" fill="none" stroke="#F3EDEA" stroke-width="0.25" stroke-miterlimit="10" cx="402.941" cy="216.579" r="1.682"/>
								
									<circle clip-path="url(#SVGID_12_)" fill="none" stroke="#F3EDEA" stroke-width="0.25" stroke-miterlimit="10" cx="127.873" cy="256.041" r="1.681"/>
								
									<circle clip-path="url(#SVGID_12_)" fill="none" stroke="#F3EDEA" stroke-width="0.25" stroke-miterlimit="10" cx="454.895" cy="380.286" r="1.682"/>
								
									<circle clip-path="url(#SVGID_12_)" fill="none" stroke="#F3EDEA" stroke-width="0.25" stroke-miterlimit="10" cx="454.895" cy="353.105" r="1.682"/>
								
									<circle clip-path="url(#SVGID_12_)" fill="none" stroke="#F3EDEA" stroke-width="0.25" stroke-miterlimit="10" cx="20.06" cy="239.776" r="1.681"/>
								
									<circle clip-path="url(#SVGID_12_)" fill="none" stroke="#F3EDEA" stroke-width="0.25" stroke-miterlimit="10" cx="56.377" cy="169.571" r="1.681"/>
								
									<circle clip-path="url(#SVGID_12_)" fill="none" stroke="#F3EDEA" stroke-width="0.25" stroke-miterlimit="10" cx="402.045" cy="152.156" r="2.655"/>
								
									<circle clip-path="url(#SVGID_12_)" fill="none" stroke="#F3EDEA" stroke-width="0.25" stroke-miterlimit="10" cx="338.207" cy="122.702" r="1.912"/>
								
									<circle clip-path="url(#SVGID_12_)" fill="none" stroke="#F3EDEA" stroke-width="0.25" stroke-miterlimit="10" cx="288.946" cy="202.176" r="1.911"/>
								
									<circle clip-path="url(#SVGID_12_)" fill="none" stroke="#F3EDEA" stroke-width="0.25" stroke-miterlimit="10" cx="402.045" cy="104.49" r="6.052"/>
								
									<circle clip-path="url(#SVGID_12_)" fill="none" stroke="#F3EDEA" stroke-width="0.25" stroke-miterlimit="10" cx="171.588" cy="193.11" r="7.328"/>
								
									<circle clip-path="url(#SVGID_12_)" fill="none" stroke="#F3EDEA" stroke-width="0.25" stroke-miterlimit="10" cx="352.726" cy="184.634" r="3.56"/>
								
									<circle clip-path="url(#SVGID_12_)" fill="none" stroke="#F3EDEA" stroke-width="0.25" stroke-miterlimit="10" cx="281.687" cy="353.105" r="8.071"/>
								
									<circle clip-path="url(#SVGID_12_)" fill="none" stroke="#F3EDEA" stroke-width="0.25" stroke-miterlimit="10" cx="369.987" cy="206.266" r="6.001"/>
								
									<circle clip-path="url(#SVGID_12_)" fill="none" stroke="#F3EDEA" stroke-width="0.25" stroke-miterlimit="10" cx="188.774" cy="163.784" r="4.371"/>
								
									<circle clip-path="url(#SVGID_12_)" fill="none" stroke="#F3EDEA" stroke-width="0.25" stroke-miterlimit="10" cx="144.014" cy="216.579" r="1.681"/>
								
									<circle clip-path="url(#SVGID_12_)" fill="none" stroke="#F3EDEA" stroke-width="0.25" stroke-miterlimit="10" cx="195.968" cy="380.286" r="1.682"/>
								
									<circle clip-path="url(#SVGID_12_)" fill="none" stroke="#F3EDEA" stroke-width="0.25" stroke-miterlimit="10" cx="195.968" cy="353.105" r="1.682"/>
								
									<circle clip-path="url(#SVGID_12_)" fill="none" stroke="#F3EDEA" stroke-width="0.25" stroke-miterlimit="10" cx="318.768" cy="323.177" r="6.053"/>
								
									<circle clip-path="url(#SVGID_12_)" fill="none" stroke="#F3EDEA" stroke-width="0.25" stroke-miterlimit="10" cx="314.945" cy="343.081" r="3.587"/>
								<path clip-path="url(#SVGID_12_)" fill="none" stroke="#F3EDEA" stroke-width="0.25" stroke-miterlimit="10" d="
									M19.354-215.602c18.701,29.636,40.974,57.627,66.875,81.273c36.843,33.63,82.777,70.406,92.184,122.455
									c5.496,30.413-4.594,61.925-20.214,87.905c-12.163,20.23-30.182,37.453-53.325,43.971c-23.576,6.64-51.48,2.49-72.864-9.402
									c-13.64-7.586-26.458-18.403-36.115-30.646c-3.866-4.902-6.944-10.225-9.331-15.985c-1.8-4.347-2.792-9.874-2.896-13.107
									c-0.138-4.283,0.288-7.241,1.392-11.766c1.182-4.84,3.075-9.425,5.203-13.919c4.031-8.514,9.501-16.291,15.278-23.7
									c4.568-5.856,9.534-11.372,14.339-17.029c5.883-6.928,15.514-11.232,23.812-14.364c24.248-9.149,52.412-5.472,68.108,16.585
									c5.559,7.811,9.856,17.571,9.66,27.283c-0.127,6.202-4.084,12.404-7.706,17.146c-8.061,10.557-19.425,16.866-32.614,17.728
									c-9.321,0.609-37.758-0.668-36.056-15.043c0.38-3.21,1.617-6.688,3.267-9.463c2.121-3.566,3.798-4.077,7.912-4.055
									c3.143,0.017,8.498,2.824,11.43,0.99c4.452-2.783,4.332-10.74,3.724-15.116c-0.312-2.242-2.085-10.55-6.188-7.985
									c-3.971,2.481-4.063,10.117-3.513,14.063c0.031,0.231,0.064,0.461,0.096,0.691c0.771-4.304,1.541-8.608,2.312-12.912
									c-0.102,0.121-0.204,0.242-0.306,0.362c0.847-0.52,1.692-1.041,2.54-1.561C60.477-0.349,55.127-4.14,49.068-1.411
									c-5.071,2.283-8.159,9.672-9.996,14.433c-5.39,13.962-6.824,32.217,1.307,45.385C46.787,68.784,63.521,71.132,74.44,71.72
									c11.044,0.597,21.518-1.734,30.671-7.955c23.329-15.852,30.743-45.007,23.714-71.479
									c-7.724-29.086-30.647-50.425-61.338-49.737c-20.014,0.449-41.353,9.043-54.524,24.302
									C1.098-19.4-10.258-5.401-17.887,11.236c-10.32,22.504-11.555,48.81-1.503,71.613c9.381,21.284,30.004,40.307,50.5,50.736
									c25.733,13.092,56.931,16.557,84.037,5.863c23.902-9.431,40.811-30.096,52.916-51.994
									c16.285-29.46,24.377-63.498,21.198-97.081c-5.339-56.414-46.369-97.909-86.188-133.945
									c-9.863-8.927-19.894-17.631-28.981-27.362c-13.315-14.258-25.55-29.52-36.879-45.394"/>
								<path clip-path="url(#SVGID_12_)" fill="none" stroke="#F3EDEA" stroke-width="0.25" stroke-miterlimit="10" d="
									M-31.269-215.788c10.78,26.662,25.191,51.979,42.825,74.699c18.021,23.218,39.69,41.495,63.257,58.713
									c20.866,15.244,40.151,32.876,54.011,54.884c12.966,20.588,21.581,49.954,8.016,72.255
									c-12.15,19.977-35.69,31.607-58.561,32.974c-10.822,0.646-21.654-1.383-31.113-6.75c-8.48-4.809-18.037-15.132-18.51-24.839
									c-0.472-9.678,7.441-20.411,15.099-26.754c3.332-2.76,7.405-5.458,11.68-6.417c1.157-0.258,3.445-0.402,4.102-0.185
									c2.09,0.691,1.392,1.759,0.793-0.495c0.771,2.902,3.737,8.292,6.882,4.102c3.077-4.095,3.058-10.932,1.806-15.642
									c-6.132-23.068-30.477-3.05-38.525,7.599c-16.645,22.022-15.904,55.29,2.929,75.731
									c15.44,16.759,40.034,19.39,61.107,13.919c23.26-6.038,43.389-21.877,52.974-44.123
									c11.968-27.773,6.149-62.551-6.756-88.912c-11.967-24.444-31.42-44.312-52.459-61.158
									c-7.977-6.387-16.333-12.275-24.725-18.096c-13.817-9.587-26.098-22.202-37.177-34.762
									c-19.489-22.096-34.98-47.418-46.897-74.308"/>
								<path clip-path="url(#SVGID_12_)" fill="none" stroke="#F3EDEA" stroke-width="0.25" stroke-miterlimit="10" d="
									M282.639-220.953c8.83,40.106,13.314,81.83,3.349,122.178c-7.963,32.242-29.42,59.134-50.914,83.565
									c-21.59,24.538-44.262,47.854-62.37,75.207c-17.858,26.977-33.229,56.562-40.563,88.249
									c-7.396,31.947-5.011,66.415,15.61,93.02c18.65,24.06,46.142,41.05,75.354,48.885c28.976,7.771,60.165,3.136,83.475-16.366
									c20.912-17.495,35.596-42.492,44.206-68.104c8.937-26.578,11.396-56.743,0.671-83.179
									c-9.381-23.121-33.423-40.737-58.197-43.358c-24.728-2.618-44.227,17.003-49.087,39.971
									c-4.747,22.428,2.438,50.849,29.745,50.607c7.163-0.063,7.095-22.929,0-22.866c-7.104,0.063-14.178-1.764-18.549-7.303
									c-1.391-1.762-0.984-1.283-1.729-2.914c-0.14-0.304-0.962-2.749-0.306-0.67c-0.242-0.773-0.419-1.564-0.595-2.354
									c0.592,2.657,0.063-0.034,0.006-0.535c-0.324-2.868,0.051,2.581,0.009-0.342c-0.007-0.581,0.214-3.471-0.026-0.423
									c0.037-0.469,0.614-4.198,0.133-1.659c0.775-4.089,1.165-4.977,3.123-8.976c1.493-3.056,4.012-6.301,6.637-9.103
									c5.537-5.906,13.507-9.429,21.422-10.476c22.99-3.039,49.199,13.663,59.097,33.876c10.816,22.089,3.674,48.711-5.852,69.884
									c-10.933,24.297-28.964,47.599-53.748,58.689c-28.372,12.697-62.054,5.428-88.491-8.43
									c-25.197-13.209-51.947-36.235-56.166-65.886c-4.333-30.479,11.225-62.696,25.512-88.578
									c15.464-28.009,35.482-52.538,56.876-76.169c22.328-24.664,44.97-49.169,60.503-78.874
									c18.278-34.955,21.87-76.355,19.287-115.138"/>
								<path clip-path="url(#SVGID_12_)" fill="none" stroke="#F3EDEA" stroke-width="0.25" stroke-miterlimit="10" d="
									M303.162-115.963c-4.566,36.397-21.591,69.426-41.834,99.471c-19.77,29.343-42.337,56.731-62.758,85.621
									c-19.934,28.202-39.321,59.883-38.323,95.645c0.771,27.629,14.738,53.351,36.93,69.618
									c23.192,17,54.431,20.433,81.681,12.563c19.762-5.709,35.037-19.957,41.441-39.577c6.787-20.792,7.343-46.843-4.038-66.189
									c-6.848-11.64-20.259-24.195-34.976-21.999c-14.465,2.159-12.238,20.193-8.414,30.043c1.294,3.332,2.755-3.047,2.094-4.754
									c-2.71-6.976-3.871-15.624,4.932-18.257c7.21-2.155,15.184,1.419,21.047,5.371c23.073,15.548,24.966,49.126,16.518,73.175
									c-9.256,26.338-34.79,37.486-60.947,39.21c-30.92,2.04-60.479-11.047-78.619-36.367
									c-9.301-12.984-14.296-28.748-14.741-44.654c-0.545-19.587,6.998-38.337,16.082-55.311
									c17.44-32.596,41.97-61.598,64.048-91.093c20.467-27.339,39.918-55.803,52.02-87.954
									c12.88-34.219,14.878-71.466,11.381-107.585"/>
							</g>
						</g>
					</g>
					<path clip-path="url(#SVGID_8_)" fill="#FFFFFF" d="M316.695,256.628c0.24,0.052,0.545,0.072,0.91,0.072
						c1.326,0,2.135-0.534,2.135-1.51c0-0.932-0.796-1.383-2.009-1.383c-0.479,0-0.846,0.032-1.036,0.074V256.628z M315.598,253.22
						c0.529-0.073,1.225-0.135,2.107-0.135c1.088,0,1.883,0.209,2.388,0.587c0.468,0.335,0.745,0.848,0.745,1.477
						c0,0.64-0.228,1.144-0.656,1.51c-0.581,0.514-1.527,0.774-2.602,0.774c-0.328,0-0.631-0.01-0.885-0.063v2.831h-1.098V253.22z"
						/>
					<rect x="322.314" y="253.137" clip-path="url(#SVGID_8_)" fill="#FFFFFF" width="1.099" height="7.063"/>
					<polygon clip-path="url(#SVGID_8_)" fill="#FFFFFF" points="329.739,256.888 326.43,256.888 326.43,259.436 330.118,259.436 
						330.118,260.201 325.331,260.201 325.331,253.136 329.928,253.136 329.928,253.903 326.43,253.903 326.43,256.135 
						329.739,256.135 					"/>
					<polygon clip-path="url(#SVGID_8_)" fill="#FFFFFF" points="333.361,253.913 330.773,253.913 330.773,253.137 337.074,253.137 
						337.074,253.913 334.473,253.913 334.473,260.2 333.361,260.2 					"/>
					<path clip-path="url(#SVGID_8_)" fill="#FFFFFF" d="M339.119,256.448h1.124c1.175,0,1.919-0.533,1.919-1.342
						c0-0.91-0.795-1.309-1.958-1.32c-0.528,0-0.909,0.043-1.085,0.084V256.448z M338.021,253.231
						c0.555-0.095,1.351-0.146,2.108-0.146c1.174,0,1.933,0.178,2.463,0.576c0.429,0.313,0.67,0.796,0.67,1.341
						c0,0.935-0.709,1.552-1.604,1.803v0.032c0.656,0.189,1.048,0.691,1.25,1.425c0.278,0.986,0.479,1.666,0.657,1.939h-1.137
						c-0.139-0.199-0.328-0.808-0.568-1.688c-0.253-0.975-0.707-1.342-1.705-1.373h-1.035v3.061h-1.099V253.231z"/>
					<path clip-path="url(#SVGID_8_)" fill="#FFFFFF" d="M345.52,256.712c0,1.508,0.984,2.859,2.715,2.859
						c1.743,0,2.729-1.33,2.729-2.934c0-1.404-0.883-2.873-2.715-2.873C346.43,253.764,345.52,255.16,345.52,256.712
						 M352.125,256.594c0,2.432-1.781,3.722-3.953,3.722c-2.247,0-3.826-1.447-3.826-3.584c0-2.243,1.679-3.71,3.951-3.71
						C350.621,253.022,352.125,254.499,352.125,256.594"/>
					<path clip-path="url(#SVGID_8_)" fill="#FFFFFF" d="M354.648,259.509c0.214,0.032,0.531,0.042,0.921,0.042
						c1.137,0,2.185-0.346,2.185-1.373c0-0.964-0.996-1.362-2.197-1.362h-0.908V259.509z M354.648,256.125h0.997
						c1.161,0,1.844-0.505,1.844-1.185c0-0.828-0.758-1.154-1.869-1.154c-0.505,0-0.795,0.033-0.972,0.063V256.125z
						 M353.549,253.231c0.479-0.084,1.237-0.146,2.008-0.146c1.099,0,1.806,0.156,2.336,0.513c0.443,0.272,0.707,0.692,0.707,1.248
						c0,0.681-0.543,1.279-1.438,1.552v0.021c0.808,0.167,1.754,0.723,1.754,1.771c0,0.608-0.288,1.068-0.719,1.416
						c-0.593,0.449-1.554,0.658-2.942,0.658c-0.758,0-1.339-0.042-1.705-0.083V253.231z"/>
					<polygon clip-path="url(#SVGID_8_)" fill="#FFFFFF" points="364.799,256.888 361.492,256.888 361.492,259.436 365.179,259.436 
						365.179,260.201 360.392,260.201 360.392,253.136 364.988,253.136 364.988,253.903 361.492,253.903 361.492,256.135 
						364.799,256.135 					"/>
					<polygon clip-path="url(#SVGID_8_)" fill="#FFFFFF" points="366.604,253.136 367.703,253.136 367.703,259.436 371.339,259.436 
						371.339,260.201 366.604,260.201 					"/>
					<polygon clip-path="url(#SVGID_8_)" fill="#FFFFFF" points="372.563,253.136 373.662,253.136 373.662,259.436 377.299,259.436 
						377.299,260.201 372.563,260.201 					"/>
					<rect x="378.521" y="253.137" clip-path="url(#SVGID_8_)" fill="#FFFFFF" width="1.1" height="7.063"/>
					<path clip-path="url(#SVGID_8_)" fill="#FFFFFF" d="M320.272,233.219c-0.053-0.26-0.079-0.51-0.075-0.754
						c0.002-0.242-0.009-0.478-0.035-0.707l0.019-1.33c0.039-0.859,0.136-1.717,0.29-2.572c0.063-0.4,0.133-0.807,0.209-1.221
						c0.078-0.414,0.146-0.821,0.209-1.222c0.092-0.399,0.182-0.806,0.273-1.22s0.197-0.821,0.316-1.221
						c0.092-0.398,0.189-0.791,0.294-1.176c0.105-0.385,0.218-0.776,0.337-1.176c0.12-0.398,0.24-0.783,0.359-1.154
						c0.118-0.371,0.238-0.756,0.357-1.156l0.804-2.307l0.401-1.154l0.222-0.555c0.059-0.113,0.095-0.214,0.11-0.299
						c0.017-0.086,0.053-0.186,0.111-0.3c0.326-0.769,0.868-1.312,1.632-1.632c0.763-0.319,1.527-0.316,2.296,0.009
						c0.77,0.325,1.32,0.862,1.654,1.608c0.334,0.75,0.338,1.509,0.014,2.276c-0.029,0.029-0.043,0.073-0.045,0.13l-0.044-0.002
						l-0.221,0.514l-0.222,0.511c-0.088,0.172-0.168,0.342-0.241,0.513c-0.075,0.17-0.142,0.342-0.201,0.512
						c-0.147,0.371-0.303,0.727-0.464,1.068c-0.162,0.34-0.316,0.697-0.465,1.066c-0.148,0.343-0.287,0.691-0.422,1.047
						c-0.133,0.355-0.273,0.72-0.422,1.089c-0.147,0.342-0.28,0.692-0.399,1.048s-0.253,0.719-0.401,1.088
						c-0.148,0.342-0.273,0.692-0.378,1.047c-0.104,0.357-0.231,0.721-0.379,1.09c-0.119,0.343-0.223,0.692-0.313,1.049
						c-0.092,0.356-0.182,0.721-0.271,1.091c-0.12,0.342-0.218,0.69-0.293,1.048c-0.076,0.357-0.145,0.707-0.207,1.05
						c-0.031,0.171-0.055,0.343-0.07,0.513c-0.019,0.172-0.041,0.33-0.072,0.473c-0.002,0.171-0.01,0.337-0.027,0.492
						c-0.016,0.158-0.025,0.308-0.027,0.451c0.027,0.144,0.039,0.279,0.037,0.408c-0.001,0.129,0.012,0.25,0.039,0.365
						c-0.001,0.057,0.006,0.102,0.02,0.129c0.015,0.029,0.021,0.059,0.021,0.086c0.028,0.059,0.042,0.116,0.041,0.174l-0.001,0.043
						v0.043c0.028,0,0.049,0.008,0.064,0.021c0.013,0.016,0.049,0.021,0.106,0.021l0.086,0.002c0.028,0,0.044,0.009,0.044,0.021
						c0,0.016,0.012,0.023,0.041,0.021l0.043,0.002c0.088,0,0.157-0.012,0.215-0.041c0.057,0.002,0.172-0.024,0.346-0.08
						c0.201-0.084,0.46-0.223,0.777-0.42c0.317-0.196,0.592-0.393,0.823-0.59c0.144-0.111,0.289-0.226,0.435-0.338
						c0.144-0.111,0.289-0.238,0.434-0.381c0.521-0.48,1.057-1.003,1.607-1.568c0.263-0.281,0.523-0.558,0.785-0.825
						c0.262-0.271,0.522-0.56,0.783-0.871c0.233-0.312,0.547-0.708,0.939-1.19c0.392-0.48,0.703-0.878,0.938-1.189
						c0.146-0.141,0.268-0.29,0.37-0.446c0.103-0.155,0.226-0.304,0.372-0.444l0.35-0.47c0.059-0.084,0.115-0.169,0.174-0.255
						c0.059-0.084,0.117-0.154,0.176-0.212c0.115-0.142,0.266-0.233,0.454-0.274c0.186-0.039,0.364-0.002,0.534,0.115
						c0.283,0.232,0.352,0.52,0.203,0.861c-0.058,0.085-0.108,0.178-0.152,0.277c-0.045,0.101-0.096,0.191-0.155,0.276l-0.263,0.513
						c-0.178,0.426-0.369,0.783-0.572,1.066c-0.206,0.369-0.469,0.822-0.79,1.361c-0.323,0.541-0.587,0.981-0.79,1.322
						c-0.234,0.34-0.46,0.68-0.679,1.022c-0.22,0.339-0.446,0.68-0.679,1.021c-0.234,0.34-0.475,0.674-0.722,0.998
						c-0.247,0.326-0.502,0.646-0.764,0.957c-0.146,0.17-0.284,0.34-0.414,0.51c-0.131,0.17-0.271,0.326-0.414,0.467
						c-0.146,0.141-0.306,0.297-0.478,0.467c-0.176,0.169-0.349,0.322-0.521,0.464c-0.406,0.339-0.796,0.621-1.171,0.845
						c-0.115,0.055-0.231,0.118-0.347,0.188c-0.115,0.071-0.244,0.133-0.387,0.188c-0.231,0.111-0.548,0.209-0.949,0.287h-0.086
						h-0.043l-0.129,0.04l-0.216-0.002c-0.114,0.026-0.272,0.039-0.472,0.036c-0.373-0.004-0.715-0.066-1.029-0.186
						c-0.17-0.06-0.349-0.118-0.533-0.178c-0.186-0.061-0.363-0.148-0.533-0.265c-0.34-0.233-0.623-0.479-0.85-0.741
						c-0.281-0.318-0.479-0.607-0.589-0.865c-0.169-0.289-0.293-0.578-0.376-0.863c-0.111-0.288-0.186-0.562-0.225-0.819
						C320.373,233.693,320.328,233.449,320.272,233.219"/>
					<path clip-path="url(#SVGID_8_)" fill="#FFFFFF" d="M361.228,223.311c0.142,0.088,0.226,0.217,0.252,0.39
						c0.027,0.171,0.011,0.328-0.048,0.47c-0.118,0.229-0.221,0.399-0.307,0.513l-0.266,0.555c-0.088,0.17-0.221,0.411-0.396,0.726
						c-0.176,0.312-0.322,0.566-0.439,0.766c-0.204,0.342-0.402,0.682-0.592,1.023c-0.191,0.34-0.389,0.695-0.594,1.064
						c-0.234,0.34-0.459,0.682-0.678,1.021c-0.22,0.342-0.445,0.668-0.679,0.979c-0.233,0.341-0.475,0.681-0.722,1.021
						c-0.248,0.34-0.502,0.666-0.764,0.979c-0.146,0.169-0.283,0.333-0.416,0.486c-0.129,0.156-0.268,0.32-0.412,0.49
						c-0.146,0.141-0.305,0.289-0.479,0.444c-0.172,0.155-0.346,0.302-0.521,0.443c-0.346,0.31-0.737,0.606-1.17,0.887
						c-0.116,0.056-0.231,0.118-0.347,0.188c-0.114,0.069-0.243,0.133-0.388,0.188c-0.316,0.138-0.633,0.22-0.948,0.245
						l-0.087,0.041h-0.042l-0.129-0.002c-0.058,0-0.093,0.006-0.108,0.021c-0.014,0.013-0.05,0.021-0.107,0.019l-0.471-0.006
						c-0.345-0.005-0.687-0.052-1.029-0.142c-0.342-0.091-0.698-0.252-1.066-0.486c-0.314-0.176-0.597-0.424-0.85-0.74
						c-0.283-0.262-0.48-0.551-0.59-0.868c-0.196-0.315-0.321-0.604-0.375-0.862c-0.111-0.26-0.187-0.518-0.227-0.776
						c-0.039-0.257-0.087-0.515-0.14-0.773l-0.11-1.418l0.001-0.086c-0.147,0.283-0.302,0.569-0.463,0.853
						c-0.161,0.285-0.328,0.568-0.504,0.852c-0.147,0.229-0.306,0.461-0.481,0.703c-0.174,0.242-0.35,0.475-0.524,0.701
						c-0.203,0.227-0.406,0.438-0.608,0.636c-0.203,0.198-0.421,0.396-0.652,0.593c-0.463,0.424-1.012,0.76-1.645,1.008
						c-0.604,0.279-1.279,0.457-2.025,0.533c-0.114-0.002-0.199,0.012-0.258,0.039h-0.043l-0.043-0.001l-0.043-0.001l-0.128-0.001
						l-0.515-0.007c-0.43-0.006-0.83-0.068-1.2-0.188c-0.428-0.091-0.827-0.268-1.194-0.529c-0.398-0.264-0.738-0.568-1.02-0.916
						c-0.311-0.377-0.548-0.752-0.715-1.127c-0.084-0.172-0.16-0.352-0.229-0.539c-0.069-0.186-0.13-0.365-0.186-0.538
						c-0.109-0.373-0.185-0.724-0.222-1.056c-0.039-0.328-0.071-0.65-0.097-0.965c0.005-0.314,0.009-0.631,0.013-0.945
						s0.022-0.629,0.056-0.943c0.032-0.286,0.058-0.571,0.075-0.857c0.019-0.287,0.058-0.572,0.119-0.857
						c0.029-0.145,0.054-0.278,0.069-0.407c0.017-0.129,0.054-0.265,0.112-0.405c0.063-0.344,0.123-0.629,0.184-0.857
						c0.061-0.256,0.12-0.521,0.182-0.793c0.061-0.271,0.121-0.534,0.181-0.791c0.091-0.256,0.172-0.52,0.247-0.791
						c0.074-0.271,0.158-0.535,0.246-0.79c0.061-0.259,0.136-0.515,0.225-0.771c0.09-0.257,0.178-0.513,0.268-0.77
						c0.09-0.227,0.185-0.471,0.289-0.727c0.104-0.256,0.201-0.513,0.289-0.769c0.09-0.257,0.185-0.505,0.289-0.748
						c0.104-0.241,0.199-0.49,0.289-0.746c0.234-0.483,0.455-0.968,0.662-1.452c0.206-0.484,0.428-0.968,0.663-1.451
						c0.088-0.228,0.205-0.455,0.353-0.682c0.088-0.227,0.205-0.47,0.352-0.727c0.059-0.142,0.118-0.262,0.178-0.361
						c0.059-0.1,0.116-0.221,0.176-0.362l0.219-0.342l0.088-0.17l0.089-0.214c0.438-0.768,1.082-1.266,1.931-1.499
						c0.846-0.232,1.654-0.13,2.42,0.312c0.739,0.41,1.232,1.031,1.479,1.864s0.164,1.634-0.246,2.401l-0.044,0.043l-0.309,0.597
						l-0.351,0.683l-0.353,0.639l-0.353,0.64c-0.235,0.455-0.454,0.896-0.661,1.322c-0.205,0.426-0.426,0.868-0.66,1.321
						c-0.44,0.884-0.867,1.765-1.279,2.646c-0.412,0.882-0.795,1.778-1.151,2.69c-0.089,0.228-0.171,0.447-0.245,0.662
						c-0.074,0.213-0.154,0.435-0.244,0.662c-0.059,0.113-0.097,0.219-0.111,0.32c-0.016,0.102-0.053,0.207-0.111,0.321
						c-0.059,0.112-0.096,0.219-0.111,0.319c-0.017,0.102-0.054,0.207-0.111,0.321c-0.061,0.228-0.114,0.449-0.159,0.663
						c-0.046,0.214-0.099,0.422-0.158,0.622c-0.062,0.228-0.106,0.44-0.137,0.642c-0.032,0.198-0.063,0.399-0.095,0.6
						c-0.063,0.4-0.066,0.73-0.012,0.986c-0.003,0.172,0.01,0.301,0.038,0.387l-0.003,0.215c0.027,0.059,0.041,0.115,0.04,0.172
						c0.027,0.059,0.084,0.13,0.169,0.217c0.057,0.088,0.154,0.146,0.299,0.176c0.057,0.029,0.092,0.043,0.106,0.043
						c0.014,0,0.05,0.018,0.106,0.045h0.043l0.043,0.002h0.043v0.043l0.129,0.002c0.371,0.063,0.714,0.053,1.029-0.028
						c0.316-0.024,0.676-0.147,1.079-0.374c0.173-0.083,0.353-0.18,0.539-0.292c0.188-0.112,0.369-0.237,0.542-0.38
						c0.174-0.141,0.348-0.289,0.521-0.444s0.332-0.331,0.479-0.53c0.32-0.34,0.625-0.707,0.916-1.104s0.568-0.794,0.832-1.19
						c0.264-0.427,0.505-0.859,0.725-1.302c0.221-0.438,0.447-0.887,0.683-1.343c0-0.027,0.007-0.043,0.022-0.042
						c0.014,0,0.022-0.015,0.022-0.043c0.062-0.286,0.114-0.556,0.16-0.813c0.046-0.257,0.1-0.529,0.161-0.813
						c0.154-0.856,0.336-1.655,0.546-2.397c0.091-0.399,0.188-0.791,0.295-1.177c0.104-0.385,0.217-0.776,0.337-1.176
						c0.119-0.399,0.238-0.791,0.359-1.177c0.117-0.385,0.238-0.775,0.358-1.176l0.802-2.308c0.06-0.171,0.127-0.349,0.2-0.534
						c0.074-0.185,0.14-0.376,0.201-0.576l0.222-0.599c0.059-0.085,0.096-0.178,0.111-0.278c0.016-0.099,0.053-0.191,0.111-0.277
						c0.324-0.77,0.867-1.319,1.63-1.653c0.763-0.333,1.528-0.338,2.298-0.013c0.77,0.326,1.32,0.869,1.652,1.632
						c0.334,0.762,0.339,1.528,0.015,2.297c-0.03,0.028-0.044,0.056-0.045,0.084h-0.042l-0.223,0.513l-0.221,0.512
						c-0.088,0.199-0.169,0.384-0.242,0.556c-0.074,0.17-0.142,0.342-0.201,0.511c-0.147,0.344-0.303,0.692-0.465,1.047
						c-0.162,0.356-0.315,0.704-0.463,1.047c-0.148,0.369-0.289,0.732-0.423,1.088c-0.133,0.357-0.274,0.705-0.421,1.047
						c-0.148,0.371-0.281,0.734-0.4,1.09c-0.119,0.357-0.252,0.705-0.4,1.046c-0.146,0.372-0.275,0.735-0.379,1.092
						c-0.105,0.354-0.23,0.703-0.379,1.045c-0.118,0.371-0.225,0.735-0.313,1.091c-0.091,0.357-0.182,0.707-0.272,1.049
						c-0.119,0.371-0.217,0.727-0.293,1.068c-0.076,0.344-0.145,0.686-0.205,1.029l-0.143,1.027
						c-0.003,0.145-0.011,0.295-0.027,0.451c-0.018,0.156-0.026,0.309-0.027,0.45c0.025,0.144,0.04,0.279,0.038,0.408
						c-0.001,0.13,0.01,0.25,0.038,0.366c0.027,0.086,0.039,0.172,0.039,0.258c0,0.027,0.014,0.059,0.041,0.086v0.043
						c0.029,0.029,0.029,0.042,0,0.042l-0.002,0.044c0.027,0.029,0.088,0.043,0.173,0.044c-0.002,0.029,0.026,0.044,0.084,0.045
						l0.086,0.001l0.043,0.002l0.215,0.002c0.058-0.027,0.115-0.041,0.173-0.041c0.057,0,0.114-0.026,0.174-0.084
						c0.113-0.056,0.236-0.111,0.364-0.166c0.13-0.056,0.267-0.125,0.411-0.209c0.145-0.113,0.282-0.211,0.413-0.297
						c0.13-0.083,0.267-0.195,0.412-0.338c0.144-0.111,0.288-0.217,0.433-0.314c0.145-0.099,0.29-0.219,0.434-0.36
						c0.262-0.254,0.529-0.508,0.805-0.763c0.275-0.252,0.544-0.522,0.805-0.805c0.262-0.281,0.522-0.565,0.783-0.849
						c0.262-0.283,0.523-0.565,0.784-0.849c0.233-0.311,0.481-0.609,0.741-0.891c0.262-0.283,0.508-0.58,0.742-0.894
						c0.145-0.14,0.312-0.367,0.502-0.679c0.19-0.313,0.357-0.539,0.502-0.683l0.352-0.468c0.057-0.055,0.115-0.126,0.172-0.211
						c0.061-0.085,0.117-0.17,0.178-0.256C360.5,223.087,360.83,223.048,361.228,223.311"/>
					<path clip-path="url(#SVGID_8_)" fill="#FFFFFF" d="M373.669,233.911c-0.054-0.259-0.079-0.509-0.076-0.752
						s-0.008-0.479-0.033-0.709l0.017-1.33c0.039-0.857,0.138-1.717,0.291-2.572c0.063-0.4,0.133-0.807,0.209-1.221
						c0.078-0.414,0.147-0.82,0.209-1.221c0.092-0.399,0.183-0.807,0.273-1.221c0.092-0.414,0.196-0.82,0.317-1.22
						c0.09-0.397,0.188-0.79,0.293-1.177c0.106-0.385,0.218-0.777,0.338-1.176c0.118-0.399,0.237-0.783,0.358-1.154
						c0.119-0.371,0.237-0.755,0.357-1.154l0.805-2.308l0.399-1.153l0.222-0.557c0.06-0.114,0.096-0.214,0.112-0.298
						c0.015-0.087,0.052-0.185,0.11-0.3c0.326-0.77,0.869-1.313,1.632-1.631c0.762-0.319,1.528-0.317,2.297,0.008
						c0.769,0.324,1.319,0.861,1.653,1.608c0.334,0.75,0.338,1.509,0.013,2.275c-0.028,0.03-0.043,0.073-0.043,0.13l-0.044-0.001
						l-0.221,0.512l-0.223,0.515c-0.087,0.168-0.169,0.34-0.24,0.51c-0.076,0.171-0.143,0.342-0.203,0.513
						c-0.147,0.37-0.303,0.726-0.463,1.067c-0.162,0.341-0.317,0.697-0.465,1.068c-0.148,0.34-0.287,0.69-0.422,1.045
						c-0.134,0.356-0.273,0.719-0.422,1.09c-0.148,0.341-0.281,0.69-0.398,1.047c-0.121,0.355-0.254,0.719-0.402,1.09
						c-0.148,0.34-0.273,0.689-0.377,1.046c-0.106,0.356-0.233,0.72-0.381,1.089c-0.118,0.344-0.223,0.691-0.313,1.048
						c-0.091,0.358-0.181,0.722-0.271,1.093c-0.12,0.342-0.217,0.69-0.293,1.047c-0.077,0.357-0.146,0.707-0.207,1.05
						c-0.031,0.172-0.055,0.342-0.071,0.514c-0.019,0.172-0.04,0.329-0.071,0.472c-0.002,0.172-0.011,0.338-0.027,0.492
						c-0.018,0.158-0.025,0.309-0.027,0.451c0.025,0.145,0.04,0.28,0.039,0.409c-0.003,0.129,0.01,0.251,0.037,0.364
						c0,0.058,0.005,0.102,0.02,0.13c0.014,0.03,0.021,0.057,0.02,0.086c0.029,0.058,0.043,0.116,0.041,0.173v0.043v0.042
						c0.029,0,0.049,0.009,0.063,0.022c0.013,0.016,0.05,0.022,0.107,0.022h0.086c0.028,0.002,0.043,0.009,0.043,0.022
						c-0.001,0.016,0.012,0.023,0.042,0.023h0.042c0.087,0,0.157-0.012,0.216-0.04c0.057,0,0.172-0.024,0.346-0.081
						c0.2-0.082,0.461-0.224,0.777-0.42c0.316-0.193,0.592-0.393,0.823-0.59c0.144-0.111,0.288-0.225,0.434-0.338
						c0.146-0.112,0.289-0.239,0.435-0.381c0.521-0.479,1.058-1.001,1.607-1.566c0.262-0.283,0.523-0.559,0.784-0.828
						c0.263-0.268,0.522-0.558,0.785-0.869c0.231-0.313,0.545-0.709,0.938-1.19c0.392-0.481,0.703-0.878,0.938-1.19
						c0.146-0.14,0.268-0.287,0.37-0.445c0.103-0.154,0.226-0.305,0.37-0.446l0.351-0.468c0.06-0.084,0.116-0.17,0.175-0.256
						c0.059-0.084,0.117-0.155,0.176-0.211c0.115-0.142,0.268-0.233,0.453-0.273c0.187-0.041,0.365-0.002,0.536,0.113
						c0.282,0.233,0.351,0.521,0.203,0.861c-0.06,0.086-0.11,0.178-0.153,0.277c-0.045,0.1-0.097,0.191-0.154,0.277l-0.264,0.512
						c-0.179,0.427-0.369,0.783-0.572,1.066c-0.207,0.369-0.471,0.824-0.791,1.363c-0.322,0.539-0.586,0.979-0.789,1.321
						c-0.235,0.34-0.461,0.68-0.68,1.021c-0.22,0.34-0.445,0.681-0.679,1.021c-0.233,0.34-0.474,0.675-0.721,1
						s-0.501,0.645-0.765,0.956c-0.145,0.169-0.283,0.339-0.414,0.51c-0.131,0.17-0.269,0.324-0.414,0.466
						c-0.145,0.141-0.303,0.297-0.478,0.467c-0.174,0.168-0.348,0.324-0.522,0.465c-0.404,0.338-0.795,0.619-1.17,0.843
						c-0.114,0.058-0.229,0.12-0.345,0.188c-0.114,0.071-0.245,0.135-0.389,0.189c-0.231,0.111-0.547,0.208-0.949,0.288
						l-0.085-0.001l-0.044-0.001l-0.129,0.042l-0.214-0.002c-0.115,0.025-0.273,0.037-0.473,0.035
						c-0.373-0.004-0.715-0.066-1.028-0.185c-0.171-0.06-0.349-0.12-0.534-0.179s-0.363-0.148-0.534-0.264
						c-0.34-0.234-0.622-0.48-0.848-0.741c-0.283-0.32-0.479-0.607-0.591-0.866c-0.168-0.288-0.293-0.576-0.375-0.863
						c-0.11-0.287-0.187-0.561-0.226-0.818C373.77,234.384,373.725,234.141,373.669,233.911"/>
					<path clip-path="url(#SVGID_8_)" fill="#FFFFFF" d="M407.37,240.532c-0.291,0.339-0.582,0.594-0.869,0.762
						c-0.146,0.141-0.319,0.268-0.52,0.379c-0.202,0.111-0.419,0.209-0.648,0.293c-0.258,0.109-0.503,0.179-0.733,0.205
						c-0.027,0.028-0.058,0.041-0.086,0.041l-0.129-0.002h-0.041h-0.043l-0.002,0.043l-0.086-0.002c-0.057,0-0.107,0.006-0.15,0.021
						c-0.043,0.012-0.094,0.019-0.15,0.018c-0.402,0.054-0.831,0.048-1.287-0.016c-0.229-0.032-0.458-0.07-0.686-0.117
						c-0.229-0.044-0.471-0.127-0.727-0.245c-0.457-0.178-0.896-0.455-1.32-0.832c-0.424-0.377-0.748-0.769-0.973-1.172
						c-0.281-0.404-0.476-0.822-0.585-1.252c-0.166-0.374-0.29-0.762-0.37-1.164c-0.056-0.199-0.089-0.395-0.101-0.581
						c-0.013-0.187-0.031-0.381-0.056-0.58c-0.027-0.173-0.047-0.345-0.06-0.517c-0.012-0.172-0.016-0.344-0.014-0.514
						c-0.06,0.142-0.118,0.269-0.177,0.383c-0.06,0.113-0.117,0.227-0.176,0.34c-0.119,0.229-0.236,0.464-0.353,0.705
						c-0.118,0.242-0.25,0.476-0.396,0.703c-0.236,0.455-0.527,0.91-0.877,1.363c-0.175,0.227-0.35,0.445-0.523,0.658
						c-0.176,0.211-0.379,0.432-0.61,0.656c-0.116,0.113-0.231,0.213-0.348,0.298c-0.114,0.083-0.244,0.183-0.39,0.294
						c-0.26,0.169-0.563,0.337-0.908,0.504c-0.144,0.055-0.301,0.111-0.473,0.165c-0.175,0.056-0.359,0.095-0.561,0.123
						c-0.029,0-0.051,0.006-0.064,0.021c-0.016,0.013-0.052,0.021-0.109,0.021l-0.043-0.002l-0.084-0.001h-0.043l-0.086-0.001
						l-0.129-0.002c-0.115,0.026-0.217,0.032-0.302,0.017s-0.186-0.023-0.299-0.024c-0.172-0.03-0.356-0.069-0.558-0.115
						c-0.198-0.045-0.399-0.112-0.6-0.2c-0.397-0.178-0.738-0.41-1.02-0.701c-0.313-0.261-0.551-0.55-0.719-0.869
						c-0.113-0.143-0.211-0.303-0.295-0.476c-0.082-0.171-0.152-0.33-0.207-0.474c-0.14-0.317-0.242-0.617-0.311-0.905
						c-0.068-0.286-0.128-0.588-0.184-0.905c-0.051-0.285-0.084-0.57-0.094-0.859c-0.012-0.285-0.029-0.571-0.054-0.858
						c0.003-0.286,0.007-0.563,0.011-0.836s0.021-0.551,0.055-0.838c0.035-0.542,0.092-1.078,0.169-1.606
						c0.079-0.529,0.179-1.064,0.302-1.606c0.092-0.515,0.213-1.029,0.361-1.541c0.15-0.513,0.301-1.026,0.449-1.541
						c0.388-1.082,0.787-2.093,1.199-3.032c0.236-0.482,0.485-0.966,0.75-1.449c0.262-0.482,0.555-0.966,0.876-1.447
						c0.292-0.453,0.642-0.922,1.048-1.404c0.203-0.227,0.406-0.445,0.611-0.657c0.202-0.213,0.419-0.431,0.652-0.658
						c0.406-0.394,0.926-0.786,1.56-1.181c0.55-0.365,1.212-0.657,1.987-0.875c0.373-0.139,0.76-0.227,1.162-0.266
						c0.4-0.037,0.802-0.054,1.203-0.049c0.771,0.069,1.541,0.235,2.312,0.502c0.626,0.237,1.265,0.575,1.917,1.014
						c0.143,0.117,0.278,0.225,0.405,0.326c0.128,0.103,0.247,0.213,0.36,0.326c0.17,0.117,0.297,0.219,0.383,0.305
						c0.086,0.031,0.142,0.089,0.17,0.176l0.169,0.131c0.594,0.58,0.899,1.271,0.918,2.073c0.018,0.801-0.249,1.498-0.802,2.093
						c-0.578,0.564-1.269,0.863-2.07,0.896c-0.803,0.033-1.486-0.24-2.051-0.821c-0.057-0.03-0.092-0.058-0.106-0.087
						c-0.013-0.029-0.048-0.059-0.106-0.088l-0.041-0.086l-0.041-0.045l-0.086-0.086c-0.027-0.059-0.058-0.093-0.086-0.108
						c-0.026-0.015-0.055-0.036-0.084-0.066l-0.338-0.347c-0.142-0.116-0.264-0.21-0.361-0.284c-0.1-0.071-0.207-0.138-0.319-0.196
						c-0.115-0.06-0.214-0.104-0.299-0.134c-0.086-0.028-0.171-0.045-0.257-0.046c-0.2-0.031-0.401-0.033-0.602-0.007
						c-0.257-0.004-0.517,0.079-0.775,0.247c-0.145,0.055-0.289,0.125-0.434,0.209c-0.144,0.084-0.287,0.183-0.432,0.295
						c-0.318,0.225-0.615,0.484-0.891,0.781c-0.276,0.299-0.559,0.603-0.85,0.912c-0.262,0.341-0.516,0.688-0.764,1.043
						c-0.249,0.354-0.489,0.731-0.725,1.127c-0.233,0.399-0.447,0.805-0.638,1.218c-0.19,0.411-0.389,0.817-0.595,1.215
						c-0.383,0.883-0.695,1.751-0.936,2.606c-0.149,0.427-0.277,0.861-0.382,1.305c-0.106,0.443-0.19,0.893-0.253,1.35
						c-0.061,0.229-0.098,0.442-0.115,0.641c-0.018,0.201-0.043,0.416-0.072,0.645c-0.004,0.229-0.008,0.443-0.008,0.643
						c-0.004,0.201,0.008,0.416,0.031,0.646c-0.001,0.2,0.012,0.394,0.037,0.579c0.025,0.188,0.066,0.354,0.122,0.496
						c0.028,0.086,0.056,0.166,0.083,0.236c0.027,0.072,0.055,0.138,0.083,0.194c0.028,0.058,0.056,0.11,0.084,0.151
						c0.028,0.044,0.056,0.094,0.085,0.152c0.055,0.029,0.127,0.088,0.211,0.174l0.256,0.09c0.029,0,0.051,0.007,0.065,0.021
						c0.014,0.016,0.05,0.023,0.106,0.023h0.045h0.043l0.043,0.001l0.041,0.001c0.086,0.001,0.215-0.025,0.389-0.081
						c0.285-0.054,0.589-0.207,0.906-0.461c0.145-0.14,0.297-0.274,0.457-0.401c0.158-0.125,0.31-0.275,0.455-0.445
						s0.291-0.34,0.437-0.51c0.146-0.168,0.291-0.354,0.437-0.553l0.787-1.148c0.234-0.397,0.469-0.809,0.703-1.234
						s0.469-0.867,0.704-1.322c0.411-0.796,0.81-1.679,1.192-2.646c0.06-0.141,0.119-0.291,0.179-0.447
						c0.058-0.157,0.118-0.307,0.178-0.45c0.062-0.284,0.12-0.498,0.181-0.641c0.029-0.144,0.06-0.294,0.092-0.451
						c0.029-0.156,0.074-0.32,0.134-0.491c0.03-0.085,0.075-0.242,0.136-0.471l0.09-0.256c0.028-0.057,0.043-0.1,0.043-0.129
						c0-0.027,0.016-0.07,0.045-0.127l0.002-0.086c0.295-0.77,0.812-1.336,1.545-1.698c0.736-0.361,1.5-0.409,2.3-0.142
						c0.797,0.269,1.377,0.77,1.741,1.504c0.361,0.734,0.408,1.502,0.141,2.299c-0.059,0.113-0.088,0.199-0.089,0.257l-0.088,0.17
						l-0.089,0.17l-0.133,0.386c-0.061,0.143-0.111,0.27-0.156,0.383c-0.045,0.116-0.096,0.243-0.155,0.385
						c-0.089,0.257-0.179,0.514-0.267,0.771c-0.09,0.256-0.178,0.527-0.269,0.812c-0.062,0.257-0.135,0.514-0.226,0.77
						c-0.088,0.257-0.163,0.529-0.225,0.814c-0.031,0.143-0.062,0.27-0.091,0.385c-0.03,0.113-0.062,0.242-0.09,0.384l-0.14,0.771
						c-0.061,0.258-0.106,0.508-0.139,0.75c-0.031,0.244-0.049,0.479-0.053,0.709c-0.059,0.228-0.063,0.442-0.007,0.644
						c-0.005,0.285,0.007,0.485,0.034,0.601c-0.002,0.115,0.025,0.258,0.08,0.432c0.056,0.113,0.084,0.201,0.082,0.259
						c0.029,0.056,0.086,0.128,0.17,0.216c0.027,0.029,0.127,0.087,0.299,0.176c0.17,0.06,0.342,0.09,0.513,0.092
						c0.058,0,0.101,0.016,0.129,0.045h0.044h0.043h-0.043h0.043l0.127,0.002c0.06-0.026,0.131-0.047,0.217-0.062
						c0.086-0.012,0.172-0.048,0.259-0.103c0.087-0.057,0.173-0.112,0.259-0.17c0.087-0.053,0.188-0.111,0.303-0.166
						c0.202-0.141,0.397-0.295,0.586-0.465s0.369-0.367,0.545-0.596c0.405-0.393,0.782-0.804,1.131-1.229
						c0.177-0.228,0.357-0.46,0.547-0.701c0.189-0.24,0.355-0.476,0.502-0.701c0.089-0.112,0.175-0.228,0.262-0.341
						c0.089-0.113,0.176-0.239,0.264-0.382c0.202-0.226,0.364-0.468,0.481-0.726c0.088-0.141,0.175-0.269,0.263-0.382
						c0.088-0.112,0.159-0.241,0.219-0.383c0.203-0.228,0.364-0.468,0.482-0.724c0.087-0.143,0.168-0.271,0.241-0.383
						c0.071-0.113,0.153-0.242,0.241-0.385l0.22-0.383l0.219-0.384l0.001-0.041c0.116-0.142,0.262-0.241,0.434-0.298
						c0.172-0.053,0.344-0.037,0.514,0.051c0.341,0.205,0.451,0.479,0.333,0.82l-0.088,0.213l-0.091,0.256l-0.133,0.428
						c-0.061,0.143-0.111,0.285-0.156,0.428s-0.098,0.285-0.156,0.428c-0.059,0.142-0.117,0.283-0.176,0.427
						c-0.061,0.144-0.119,0.284-0.178,0.427c-0.09,0.258-0.207,0.541-0.355,0.855c-0.059,0.142-0.118,0.283-0.178,0.426
						c-0.059,0.143-0.117,0.285-0.176,0.427c-0.061,0.144-0.127,0.285-0.199,0.429c-0.073,0.141-0.141,0.282-0.198,0.426
						c-0.147,0.285-0.294,0.561-0.44,0.83c-0.148,0.271-0.295,0.547-0.439,0.832c-0.324,0.568-0.674,1.121-1.053,1.66
						C408.356,239.471,407.92,239.995,407.37,240.532"/>
					<path clip-path="url(#SVGID_8_)" fill="#FFFFFF" d="M286.722,265.049c-9.087,0.634-18.724-8.849,21.593-16.55
						C302.732,258.479,295.547,264.431,286.722,265.049 M315.244,221.3c-5.475,15.326-15.513,17.23-17.328,15.027
						c-1.918-2.33-2.23-7.224,3.705-14.934c3.97-5.161,10.155-7.5,12.287-7.13C316.771,214.76,316.324,218.272,315.244,221.3
						 M313.379,243.87c1.979-4.746,3.562-9.646,4.738-14.698c1.893-8.273,3.59-18.445-5.175-18.513
						c-2.251-0.017-7.831,0.7-12.231,4.104c-3.662,2.832-6.443,5.813-8.405,9.925c-5.412,11.339,0.978,16.306,2.604,16.867
						c6.816,2.347,15.569-4.763,18.853-9.468c-0.884,2.291-2.332,7.578-4.263,12.092c-45.89,5.623-38.598,22.613-28.767,24.77
						c5.644,1.24,9.3,0.854,17.521-4.475c5.068-3.285,9.4-8.975,11.324-12.573c1.084-2.034,1.127-1.981,2.053-4.075
						c34.605-4.148,77.309-1.828,100.547,3.396c-0.732-1.116-9.871-3.343-12.596-4.013
						C367.936,239.419,331.781,241.821,313.379,243.87"/>
					<path clip-path="url(#SVGID_8_)" fill="#FFFFFF" d="M389.213,187.668c7.926-0.554,9.438,11.362-18.246,15.269
						C375.836,194.231,381.514,188.206,389.213,187.668 M364.867,207.303c-1.727,4.139-3.105,8.413-4.133,12.821
						c-1.65,7.214-3.132,16.087,4.513,16.146c1.964,0.014,11.337-7.023,9.218-9.666c0,0-16.447,18.459-9.139-9.057
						c0.771-1.998,2.079-6.682,3.762-10.619c35.272-4.531,32.694-20.957,24.119-22.839c-4.923-1.081-11.82,1.551-14.729,3.578
						c-4.321,3.01-8.616,9.491-10.296,12.632c-0.944,1.775-0.981,1.729-1.789,3.555c-11.801,1.625-30.42-0.166-40.648-3.926
						C332.481,203.426,352.239,207.089,364.867,207.303"/>
				</g>
			</g>
		</g>
	</g>
	<g>
		<path fill="#F3EDEA" d="M168.441,196.735c-22.007-0.303-40.815,29.684-45.873,69.996c17.872,12.503,32.323,22.266,35.652,24.6
			c21.071,14.771,34.886,36.021,40.606,59.136c8.531-16.136,13.978-38.504,14.321-63.289
			C213.834,237.577,193.818,197.083,168.441,196.735"/>
		<path fill="#FACFCD" d="M191.398,204.2c-21.797-7.963-49.323,12.355-61.481,45.383c-2.373,6.445-3.976,12.896-4.872,19.167
			c16.347,11.396,29.264,20.13,32.388,22.319c9.986,7,18.339,15.458,24.979,24.877c10.844-8.249,20.483-21.359,26.437-37.528
			C221.008,245.391,213.195,212.165,191.398,204.2"/>
		<path fill="#F3EDEA" d="M349,34.446c0,19.817-16.125,35.876-36.02,35.876c-19.885,0-36.01-16.059-36.01-35.876
			c0-19.812,16.125-35.87,36.01-35.87C332.875-1.425,349,14.634,349,34.446"/>
		<path fill="#F3EDEA" d="M238.16,409.954H71.563v-0.021c-31.924-0.197-58.129-24.342-61.423-55.308
			c-2.994,9.481-4.625,19.571-4.625,30.037c0,55.231,44.95,100.01,100.394,100.01h166.603v0.016
			c31.912,0.19,58.117,24.345,61.416,55.312c2.998-9.486,4.625-19.572,4.625-30.04C338.553,454.726,293.605,409.954,238.16,409.954"
			/>
		<path fill="#F3EDEA" d="M190.839,93.704c-9.372,15.119-27.406,31.013-50.675,43.025c-18.927,9.771-37.974,15.25-54.01,16.373
			c-0.972,11.406-0.718,23.412,0.968,35.709c3.342,24.357,11.721,46.178,23.218,63.324c17.671,26.357,53.644,41.327,68.148,38.219
			c14.502-3.106,46.386-25.951,56.053-57.208c5.916-19.127,7.836-41.567,4.618-65.026c-1.343-9.792-3.522-19.155-6.369-27.988
			c-7.385-5.821-15.329-13.276-23.089-21.905C202.178,109.864,195.78,101.453,190.839,93.704"/>
		<path fill="#FACFCD" d="M227.397,212.551c-0.099,7.196-6.034,12.948-13.26,12.849c-7.224-0.1-13-6.013-12.899-13.209
			c0.1-7.195,6.037-12.946,13.26-12.847C221.725,199.442,227.496,205.354,227.397,212.551"/>
		<path fill="#FACFCD" d="M137.152,225.452c-0.102,7.193-6.04,12.948-13.262,12.849c-7.222-0.097-13-6.015-12.901-13.21
			c0.102-7.195,6.04-12.946,13.262-12.848C131.474,212.343,137.249,218.255,137.152,225.452"/>
		<path fill="none" stroke="#58595B" stroke-width="4" stroke-linecap="round" stroke-miterlimit="10" d="M182.41,184.954
			c2.966-8.341,10.439-14.596,18.137-13.825c8.309,0.015,16.875,8.181,20.748,11.026 M105.911,189.469
			c3.673-6.72,10.276-11.333,17.05-10.656c8.538,0.015,17.344,8.408,21.325,11.333"/>
		<path fill="none" stroke="#846668" stroke-width="5.669" stroke-linecap="round" d="M180.443,162.36
			c9.809-10.015,27.059-11.334,38.965-1.539 M102.272,170.274c10.082-10.293,27.81-11.648,40.046-1.581"/>
		<path fill="#58595B" d="M126.819,189.771c-2.421,0-4.385-1.956-4.385-4.368c0-2.363,1.889-4.286,4.245-4.36
			c-1.75-1.309-3.917-2.095-6.274-2.095c-5.783,0-10.472,4.671-10.472,10.431c0,5.761,4.689,10.431,10.472,10.431
			s10.471-4.67,10.471-10.431c0-0.658-0.068-1.301-0.185-1.928C129.953,188.831,128.497,189.771,126.819,189.771"/>
		<path fill="#58595B" d="M207.874,177.434c-0.251,2.173-2.103,3.861-4.353,3.861c-2.422,0-4.385-1.956-4.385-4.367
			c0-2.345,1.857-4.253,4.186-4.358c-1.479-0.796-3.172-1.249-4.972-1.249c-5.784,0-10.472,4.67-10.472,10.431
			c0,5.76,4.688,10.431,10.472,10.431c5.783,0,10.472-4.671,10.472-10.431C208.822,180.211,208.477,178.752,207.874,177.434"/>
		<path fill="#ED3963" d="M151.991,246.069c0,0,8.078,15.135,21.537,13.98c13.513-1.157,17.337-14.653,18.441-17.604
			C172.703,247.467,151.991,246.069,151.991,246.069"/>
		<path fill="#ED3963" d="M170.884,249.061l21.084-6.615c0,0-9.26-2.9-15.131-2.045c-3.25,0.477-6.124,3.477-6.124,3.477
			s-3.59-3.125-8.546-1.728c-2.629,0.743-3.695,1.242-10.178,3.919C159.737,247.112,170.884,249.061,170.884,249.061"/>
	</g>
</g>
<path fill="#F3EDEA" d="M174.333,33.81v0.041c52.729,13.265,94.42,65.992,98.995,131.714c4.947,71.065-35.18,133.078-92.387,148.299
	c9.25,12.114,15.521,25.999,18.636,40.527c-0.121,0.026-0.243,0.054-0.366,0.08l0.357-0.018
	c72.965-16.15,127.527-81.008,127.527-158.551C327.096,109.632,259.584,39.096,174.333,33.81z"/>
</svg>
