<?xml version="1.0" encoding="utf-8"?>
<!-- Generator: Adobe Illustrator 16.0.0, SVG Export Plug-In . SVG Version: 6.00 Build 0)  -->
<!DOCTYPE svg PUBLIC "-//W3C//DTD SVG 1.1//EN" "http://www.w3.org/Graphics/SVG/1.1/DTD/svg11.dtd">
<svg version="1.1" id="Capa_1" xmlns="http://www.w3.org/2000/svg" xmlns:xlink="http://www.w3.org/1999/xlink" x="0px" y="0px"
	 width="800px" height="800px" viewBox="0 0 800 800" enable-background="new 0 0 800 800" xml:space="preserve">
<g>
	<path fill="#fff" d="M399.998,0C179.44,0,0,179.439,0,399.999c0,111.159,46.829,218.218,128.478,293.729
		c6.602,6.105,16.901,5.701,23.006-0.897c6.105-6.604,5.704-16.901-0.9-23.007C75.576,600.455,32.56,502.108,32.56,399.999
		c0-202.605,164.833-367.439,367.438-367.439s367.439,164.833,367.439,367.439c0,202.606-164.834,367.439-367.439,367.439
		c-8.989,0-16.279,7.291-16.279,16.28s7.29,16.279,16.279,16.279c220.563,0,399.999-179.438,399.999-399.999
		C799.997,179.439,620.561,0,399.998,0z"/>
	<path fill="#fff" d="M228.42,244.7h343.16c8.988,0,16.279-7.291,16.279-16.28s-7.291-16.28-16.279-16.28H228.42
		c-8.989,0-16.28,7.291-16.28,16.28S219.431,244.7,228.42,244.7z"/>
	<path fill="#fff" d="M228.42,416.278h343.16c8.988,0,16.279-7.29,16.279-16.28c0-8.989-7.291-16.28-16.279-16.28H228.42
		c-8.989,0-16.28,7.291-16.28,16.28C212.14,408.988,219.431,416.278,228.42,416.278z"/>
	<path fill="#fff" d="M587.86,571.58c0-8.989-7.29-16.279-16.279-16.279H228.42c-8.989,0-16.28,7.29-16.28,16.279
		s7.291,16.28,16.28,16.28h343.16C580.569,587.86,587.86,580.569,587.86,571.58z"/>
</g>
</svg>
