<?xml version="1.0" encoding="utf-8"?>
<!-- Generator: Adobe Illustrator 16.0.0, SVG Export Plug-In . SVG Version: 6.00 Build 0)  -->
<!DOCTYPE svg PUBLIC "-//W3C//DTD SVG 1.1//EN" "http://www.w3.org/Graphics/SVG/1.1/DTD/svg11.dtd">
<svg version="1.1" id="Layer_1" xmlns="http://www.w3.org/2000/svg" xmlns:xlink="http://www.w3.org/1999/xlink" x="0px" y="0px"
	 width="80px" height="80px" viewBox="0 0 80 80" enable-background="new 0 0 80 80" xml:space="preserve">
<path fill="#fff" d="M42.633,49.135c-2.465-0.192-3.503-1.415-5.438-2.591c-1.064,5.58-2.363,10.932-6.217,13.727
	c-1.188-8.436,1.744-14.771,3.108-21.496c-2.321-3.912,0.278-11.785,5.18-9.844c6.029,2.386-5.223,14.542,2.332,16.058
	c7.886,1.586,11.105-13.682,6.215-18.648c-7.066-7.168-20.568-0.162-18.906,10.102c0.402,2.509,2.998,3.27,1.035,6.734
	c-4.521-1.002-5.87-4.57-5.696-9.323c0.281-7.783,6.991-13.231,13.726-13.988c8.518-0.952,16.511,3.127,17.613,11.138
	C56.827,40.044,51.74,49.836,42.633,49.135L42.633,49.135z"/>
</svg>
