<?xml version="1.0" encoding="utf-8"?>
<!-- Generator: Adobe Illustrator 16.0.0, SVG Export Plug-In . SVG Version: 6.00 Build 0)  -->
<!DOCTYPE svg PUBLIC "-//W3C//DTD SVG 1.1//EN" "http://www.w3.org/Graphics/SVG/1.1/DTD/svg11.dtd">
<svg version="1.1" id="Layer_1" xmlns="http://www.w3.org/2000/svg" xmlns:xlink="http://www.w3.org/1999/xlink" x="0px" y="0px"
	 width="80px" height="80px" viewBox="0 0 80 80" enable-background="new 0 0 80 80" xml:space="preserve">
<path fill="#5E595B" d="M42.919,50.139c-2.733-0.215-3.886-1.569-6.032-2.877c-1.181,6.194-2.623,12.135-6.899,15.234
	c-1.318-9.363,1.935-16.392,3.449-23.857c-2.576-4.341,0.308-13.078,5.748-10.924c6.69,2.648-5.796,16.139,2.588,17.821
	c8.752,1.761,12.324-15.184,6.897-20.695c-7.843-7.956-22.825-0.18-20.981,11.21c0.446,2.785,3.326,3.628,1.149,7.475
	c-5.018-1.111-6.516-5.074-6.321-10.347c0.311-8.638,7.758-14.685,15.232-15.524c9.454-1.057,18.322,3.47,19.545,12.361
	C58.673,40.048,53.027,50.914,42.919,50.139L42.919,50.139z"/>
</svg>
